<svg xmlns="http://www.w3.org/2000/svg" width="24" height="34" viewBox="0 0 24 34">
  <path d="M824.366,3699.51l1.991-2.71a2.052,2.052,0,0,1,2.773-.45l1.685,1.15a12.755,12.755,0,0,0,7.46,2.2,4.177,4.177,0,0,1,2.474.73h0a3.955,3.955,0,0,1,1.692,2.58,3.857,3.857,0,0,1,.054.87,6.9,6.9,0,0,1,5.5,6.71,6.806,6.806,0,0,1-.965,3.49,3.851,3.851,0,0,1,.157,4.91,11.763,11.763,0,0,0-2.442,7.12v1.98a1.955,1.955,0,0,1-1.989,1.91h-3.446a1.955,1.955,0,0,1-1.989-1.91v-1.98a11.6,11.6,0,0,0-2.442-7.12,3.853,3.853,0,0,1,.156-4.91,6.836,6.836,0,0,1-.821-2.1,4.093,4.093,0,0,1-1.517-.64,3.954,3.954,0,0,1-1.541-2,12.136,12.136,0,0,0-4.637-6.03l-1.685-1.14A1.862,1.862,0,0,1,824.366,3699.51Zm17.678,5.99a3.97,3.97,0,0,1-.307.48,4.178,4.178,0,0,1-2.525,1.6,3.868,3.868,0,0,1-.727,2.81,4.169,4.169,0,0,1-2.476,1.59,5.07,5.07,0,0,0,.423,1.05,7.68,7.68,0,0,0,7.419-.39,4.277,4.277,0,0,1,1.792.39,5.092,5.092,0,0,0,.613-2.44A5.2,5.2,0,0,0,842.044,3705.5Zm-5.757,12.5a13.189,13.189,0,0,1,2.782,8.11v1.98a0.245,0.245,0,0,0,.246.24h3.446a0.244,0.244,0,0,0,.245-0.24v-1.98a13.374,13.374,0,0,1,2.782-8.11,2.252,2.252,0,0,0,.468-1.37,2.358,2.358,0,0,0-2.4-2.31,2.417,2.417,0,0,0-2.066,1.12,0.886,0.886,0,0,1-1.5,0,2.417,2.417,0,0,0-2.065-1.12,2.358,2.358,0,0,0-2.406,2.31A2.252,2.252,0,0,0,836.287,3718Zm-10.44-17.2,1.685,1.15a13.791,13.791,0,0,1,5.285,6.87,2.249,2.249,0,0,0,.892,1.15,2.476,2.476,0,0,0,1.8.4,2.414,2.414,0,0,0,1.558-.95,2.2,2.2,0,0,0,.237-2.26,0.826,0.826,0,0,1,.086-0.83,0.889,0.889,0,0,1,.712-0.35h0.066a2.426,2.426,0,0,0,2.15-.96,2.253,2.253,0,0,0-.573-3.22,2.424,2.424,0,0,0-1.433-.43,14.5,14.5,0,0,1-8.5-2.51l-1.685-1.14a0.253,0.253,0,0,0-.343.05l-1.992,2.7A0.23,0.23,0,0,0,825.847,3700.8Zm11.944,1.16a2.007,2.007,0,0,1,2.046,1.96,0.872,0.872,0,0,1-1.743,0,0.3,0.3,0,0,0-.3-0.29A0.836,0.836,0,1,1,837.791,3701.96Z" transform="translate(-824 -3696)"/>
</svg>
