<svg xmlns="http://www.w3.org/2000/svg" width="34" height="40" viewBox="0 0 34 40">
  <path d="M840.962,3096.81h1.307v1.29h-1.307v-1.29ZM856,3081.97a19.727,19.727,0,0,0-5.518-7.08,5.884,5.884,0,0,0-5.557-3.89,5.945,5.945,0,0,0-2.918.77,4.507,4.507,0,0,0-1.045-.12,4.6,4.6,0,0,0-3.512,1.62,4.667,4.667,0,0,0-1.719-.33,4.588,4.588,0,0,0-4.114,2.54,13.978,13.978,0,0,0-6.86,10.09l-0.015.01a0.109,0.109,0,0,0,.011.01,13.56,13.56,0,0,0-.138,1.92v7.12l-1.944,1.37a1.574,1.574,0,0,0,.7,2.85l1.294,0.18a10.985,10.985,0,0,0,9.755,9.95V3111h1.308v-3.22l-0.614-.04a9.779,9.779,0,0,1-7.223-3.84h1.3a5.2,5.2,0,0,0,5.231-5.16h-1.308a3.9,3.9,0,0,1-3.923,3.87h-2.129a9.568,9.568,0,0,1-1.122-4.16l-0.019-.55-2.362-.33a0.288,0.288,0,0,1-.252-0.28,0.293,0.293,0,0,1,.123-0.24l2.492-1.76v-7.78c0-.16.01-0.31,0.016-0.47a37.578,37.578,0,0,0,2.67,2.77,1.926,1.926,0,0,0-1.378,1.84,1.958,1.958,0,0,0,3.895.26c2.619,1.96,5.821,3.61,9.182,3.61h0.98a2.255,2.255,0,1,1,0,4.51h-0.98v1.29h0.98a3.614,3.614,0,0,0,1.672-.41,21.11,21.11,0,0,1,4.585,6.46q-0.045.525-.045,1.05V3111h1.308v-2.58a11.252,11.252,0,0,1,2.4-6.95c4.737-6,4.791-10.91,4.791-11.11v-2.85a13.811,13.811,0,0,0-.5-3.66A3.822,3.822,0,0,0,856,3081.97Zm-26.808,10.32a0.645,0.645,0,1,1,.654-0.64A0.649,0.649,0,0,1,829.192,3092.29Zm25.5-1.94c0,0.05-.075,4.7-4.515,10.33a12.507,12.507,0,0,0-2.257,4.54,20.723,20.723,0,0,0-3.92-5.12,3.532,3.532,0,0,0,.885-2.33,3.574,3.574,0,0,0-3.6-3.54h-0.98c-6.491,0-12.676-7.13-14.17-8.98a12.663,12.663,0,0,1,5.022-7.93c0,0.05-.006.09-0.006,0.13a4.524,4.524,0,0,0,.15,1.09,3.859,3.859,0,0,0-2.112,3.43,3.9,3.9,0,0,0,3.923,3.87h18.962a3.961,3.961,0,0,0,2.368-.79,12.44,12.44,0,0,1,.247,2.46v2.84Zm-2.615-5.8H833.115a2.58,2.58,0,1,1,2.616-2.58h1.307a3.9,3.9,0,0,0-3.923-3.87,5.309,5.309,0,0,0-.569.04,3.1,3.1,0,0,1-.084-0.69,3.269,3.269,0,0,1,6.538,0h1.308a4.481,4.481,0,0,0-1.707-3.51,3.275,3.275,0,0,1,5.63,2.22h1.307a4.493,4.493,0,0,0-1.926-3.67,4.47,4.47,0,0,1,1.313-.2,4.583,4.583,0,0,1,4.2,2.71,3.921,3.921,0,0,0-2.6,2.19l1.2,0.52a2.622,2.622,0,0,1,4.935.43,5.4,5.4,0,0,0-.575-0.04,3.928,3.928,0,0,0-2.5.89l0.835,0.99a2.651,2.651,0,0,1,1.669-.59A2.58,2.58,0,1,1,852.077,3084.55Z" transform="translate(-822 -3071)"/>
</svg>
