<svg xmlns="http://www.w3.org/2000/svg" width="42" height="42" viewBox="0 0 42 42">
  <path class="cls-1" d="M436.8,2670.68a3.528,3.528,0,0,0-.31-0.64s-0.006-.01-0.009-0.01l-0.1-.15c0-.01-0.005-0.01-0.008-0.01-0.033-.05-0.068-0.1-0.1-0.15a2.231,2.231,0,0,0-.235-0.27l-0.214-.22,0.2-.23a2.55,2.55,0,0,0,.357-0.61s0-.01.006-0.01a2.506,2.506,0,0,0,.124-0.35c0.033-.14.059-0.27,0.079-0.41a3.562,3.562,0,0,0-.206-1.73,4.062,4.062,0,0,0-.187-0.4,0.061,0.061,0,0,0-.007-0.01l-0.019-.04a2.7,2.7,0,0,0-.193-0.32l-0.006-.01a3.229,3.229,0,0,0-.272-0.33,2.1,2.1,0,0,0-.278-0.28,3.135,3.135,0,0,0-.635-0.42,2.932,2.932,0,0,0-.672-0.22l-0.293-.06,0.033-.3a3.216,3.216,0,0,0-.007-0.72,2.988,2.988,0,0,0-.186-0.72,0.146,0.146,0,0,0-.005-0.02,3.52,3.52,0,0,0-.915-1.32,3.353,3.353,0,0,0-.661-0.47,0.012,0.012,0,0,0-.013-0.01,3.92,3.92,0,0,0-.7-0.29,2.731,2.731,0,0,0-.7-0.1h-0.119a1.933,1.933,0,0,0-.226.01c-0.116.01-.23,0.03-0.341,0.05l-0.315.07-0.071-.32a3.3,3.3,0,0,0-1.844-2.2,3.38,3.38,0,0,0-1.421-.32,3.132,3.132,0,0,0-1.4.33l-0.289.16-0.149-.3a3.277,3.277,0,0,0-2.256-1.69,3.438,3.438,0,0,0-.712-0.08,3.116,3.116,0,0,0-2.012.71l-0.257.21-0.2-.27a3.1,3.1,0,0,0-.478-0.48,3.846,3.846,0,0,0-.583-0.38c-0.007,0-.015-0.01-0.023-0.01a3.362,3.362,0,0,0-1.423-.34h-0.1a3.464,3.464,0,0,0-1.348.29,0.024,0.024,0,0,1-.023.01,3.249,3.249,0,0,0-.595.36,2.712,2.712,0,0,0-.493.47l-0.213.26-0.249-.23a3.212,3.212,0,0,0-2.11-.77,3.891,3.891,0,0,0-.589.05,3.3,3.3,0,0,0-2.312,1.61l-0.16.28-0.281-.16a3.063,3.063,0,0,0-1.527-.39,3.314,3.314,0,0,0-1.275.25,0.011,0.011,0,0,0-.012.01,3.761,3.761,0,0,0-.676.37,0.014,0.014,0,0,0-.014.01,3.839,3.839,0,0,0-.549.48c0,0.01-.01.01-0.015,0.02a3.091,3.091,0,0,0-.676,1.22l-0.087.32-0.31-.09a2.807,2.807,0,0,0-.673-0.1h-0.058a3.722,3.722,0,0,0-.659.06s-0.01.01-.016,0.01a3.419,3.419,0,0,0-.713.24,3.652,3.652,0,0,0-.681.43,0.012,0.012,0,0,0-.013.01,4.055,4.055,0,0,0-.563.56,0.034,0.034,0,0,1-.015.02,4.162,4.162,0,0,0-.4.65,0.035,0.035,0,0,1-.01.02,3.084,3.084,0,0,0-.283,1.41l0.016,0.32-0.311.03a1.285,1.285,0,0,0-.332.05h-0.023c-0.1.03-.2,0.06-0.321,0.1a2.576,2.576,0,0,0-.652.35H397.2a3.043,3.043,0,0,0-.591.54l-0.009.01a3.12,3.12,0,0,0-.254.33l-0.022.03c-0.069.11-.139,0.23-0.211,0.37a3.613,3.613,0,0,0-.381,1.68,3.321,3.321,0,0,0,.12.77,0.146,0.146,0,0,0,0,.02,2.772,2.772,0,0,0,.3.65l0.154,0.25-0.232.19a3.167,3.167,0,0,0-1.033,2.98c0,0.01,0,.03.006,0.04,0.033,0.16.073,0.32,0.122,0.48l0.015,0.05c0.026,0.08.038,0.12,0.057,0.17,0.034,0.08.07,0.16,0.105,0.23,0.067,0.13.14,0.28,0.223,0.41a0.034,0.034,0,0,1,.015.02c0.089,0.12.185,0.25,0.282,0.36l0.025,0.03a1.141,1.141,0,0,0,.108.11,0.041,0.041,0,0,0,.019.02,1.869,1.869,0,0,0,.163.14c0.1,0.08.211,0.16,0.318,0.23a0.073,0.073,0,0,0,.039.02,2.3,2.3,0,0,0,.681.26l0.258,0.06,0,0.27a2.74,2.74,0,0,0,.092.74c0,0.01,0,.02.007,0.03a3.5,3.5,0,0,0,.141.37c0.025,0.06.053,0.12,0.082,0.18l0.018,0.03c0.031,0.06.063,0.11,0.1,0.17a3.617,3.617,0,0,0,.253.35,0.036,0.036,0,0,0,.018.02,3.6,3.6,0,0,0,.3.31c0.058,0.06.117,0.11,0.175,0.16s0.092,0.07.127,0.1l0.049,0.03a3.116,3.116,0,0,0,.381.24c0.01,0.01.02,0.01,0.03,0.02a3.4,3.4,0,0,0,1.5.38h0.09a2.274,2.274,0,0,0,.371-0.03h0.014c0.125-.02.249-0.05,0.339-0.07a2.4,2.4,0,0,0,.633-0.27l0.28-.16,0.165,0.28a3.322,3.322,0,0,0,2.375,1.54,2.66,2.66,0,0,0,.485.04,3.211,3.211,0,0,0,2.16-.82l0.25-.22,0.214,0.25a3.289,3.289,0,0,0,2.452,1.19h0.136a3.492,3.492,0,0,0-.382,1.59,3.454,3.454,0,0,0,2.743,3.4,8.635,8.635,0,0,0,4.707,7.25l2.425,1.2,0.019,0.01a2.383,2.383,0,0,1,1.352,2.15,2.274,2.274,0,0,0,2.249,2.29h0.808a2.273,2.273,0,0,0,2.248-2.29,7.872,7.872,0,0,0-1.759-4.94c0.2,0.01.405,0.02,0.608,0.02,0.12,0,.239,0,0.359-0.01a8.679,8.679,0,0,0,8.255-8.78,0.667,0.667,0,0,0-.663-0.67h0a0.665,0.665,0,0,0-.662.67,7.346,7.346,0,0,1-6.984,7.43,7.072,7.072,0,0,1-3.5-.74l-2.425-1.2a3.185,3.185,0,0,1-1.654-2.11c0-.01.011,0,0.017-0.01a3.352,3.352,0,0,0,1.381-.39,3.275,3.275,0,0,0,1.041-.89l0.2-.26,0.257,0.21a3.445,3.445,0,0,0,1.2.62h0.023a3.421,3.421,0,0,0,.837.1,3.867,3.867,0,0,0,.6-0.05h0.009a3.449,3.449,0,0,0,1.366-.58,3.621,3.621,0,0,0,.523-0.46,0.109,0.109,0,0,0,.011-0.01,3.842,3.842,0,0,0,.4-0.56l0.16-.29,0.281,0.16a2.406,2.406,0,0,0,.625.27,2.776,2.776,0,0,0,.7.12H428.1a2.457,2.457,0,0,0,.741-0.05,3.072,3.072,0,0,0,.754-0.22l0.018-.01a3.264,3.264,0,0,0,1.913-2.25l0.059-.31,0.306,0.04a1.815,1.815,0,0,0,.34.03h0c0.118,0,.239-0.01.362-0.02a2.579,2.579,0,0,0,.374-0.08,1.479,1.479,0,0,0,.35-0.12h0.009a3.054,3.054,0,0,0,.369-0.18s0.009-.01.013-0.01a2.788,2.788,0,0,0,.333-0.23s0.008-.01.012-0.01a3.414,3.414,0,0,0,.322-0.27c0-.01.007-0.01,0.01-0.02,0.107-.11.209-0.23,0.305-0.35,0.043-.05.084-0.11,0.124-0.16,0.009-.01.018-0.03,0.026-0.04,0.036-.06.072-0.12,0.106-0.18a3.1,3.1,0,0,0,.2-0.39c0.006-.01.011-0.02,0.016-0.03a3.805,3.805,0,0,0,.222-0.79c0-.01,0-0.02,0-0.03a3.2,3.2,0,0,0,.012-0.77,2.873,2.873,0,0,0-.179-0.7l-0.118-.28,0.264-.14a3.007,3.007,0,0,0,.573-0.41,0.037,0.037,0,0,0,.019-0.02,3.317,3.317,0,0,0,.478-0.57,3.638,3.638,0,0,0,.541-1.54v-0.01A3.47,3.47,0,0,0,436.8,2670.68Zm-17.276,17.02,2.425,1.21h0a6.493,6.493,0,0,1,3.6,5.8,0.932,0.932,0,0,1-.923.94h-0.808a0.931,0.931,0,0,1-.922-0.94,3.736,3.736,0,0,0-2.105-3.37l-2.436-1.21a7.251,7.251,0,0,1-3.961-6.04l0.156-.03a0.677,0.677,0,0,0,.481-0.82,0.658,0.658,0,0,0-.806-0.49,2.159,2.159,0,0,1-.508.06,2.093,2.093,0,0,1-2.067-2.11,2.123,2.123,0,0,1,.306-1.1,3.755,3.755,0,0,0,2.863,2.23l0.206,0.03,0.06,0.2a3.225,3.225,0,0,0,1.978,2.11A4.524,4.524,0,0,0,419.528,2687.7Zm16.13-15.61,0,0.02a2.209,2.209,0,0,1-.332.94,2,2,0,0,1-.275.33,1.51,1.51,0,0,1-.3.21l-0.666.36h-1.209a1.41,1.41,0,0,1-1.393-1.42,2.746,2.746,0,0,0-2.719-2.77h-0.1a2.746,2.746,0,0,0-2.719,2.77,1.252,1.252,0,0,1-1.235,1.26,1.41,1.41,0,0,1-1.393-1.42v-0.59a0.663,0.663,0,1,0-1.326,0v0.59a2.746,2.746,0,0,0,2.719,2.77,2.588,2.588,0,0,0,2.561-2.61,1.41,1.41,0,0,1,1.393-1.42h0.1a1.41,1.41,0,0,1,1.393,1.42,2.746,2.746,0,0,0,2.719,2.77h0.943l0.186,0.44a1.648,1.648,0,0,1,.085.36,1.846,1.846,0,0,1-.014.41,2.548,2.548,0,0,1-.134.47,2.459,2.459,0,0,1-.138.26c-0.022.04-.044,0.08-0.067,0.12a1,1,0,0,0-.077.1c-0.069.08-.142,0.17-0.218,0.25-0.044.04-.125,0.11-0.192,0.16s-0.14.1-.185,0.13a1.618,1.618,0,0,1-.239.12c-0.048.02-.137,0.05-0.164,0.06a2.119,2.119,0,0,1-.233.05c-0.072,0-.141.01-0.2,0.01a0.7,0.7,0,0,1-.146-0.02l-0.93-.13a0.668,0.668,0,0,0-.744.54l-0.179.94a1.929,1.929,0,0,1-1.135,1.27h-0.009l-0.025.01s0,0-.008.01a1.9,1.9,0,0,1-.435.12,1.57,1.57,0,0,1-.338.04H428.2l-0.024-.01a2.006,2.006,0,0,1-.437-0.07,1.724,1.724,0,0,1-.335-0.15l-0.855-.48a0.657,0.657,0,0,0-.9.25l-0.484.87a1.805,1.805,0,0,1-.549.6,2.093,2.093,0,0,1-.845.35,2.17,2.17,0,0,1-.875-0.03,2,2,0,0,1-.717-0.37l-0.445-.36a0.667,0.667,0,0,0,0-.07v-0.1a2.753,2.753,0,0,0-2.719-2.77,1.246,1.246,0,0,1-1.235-1.26,1.4,1.4,0,0,1,1.393-1.41h0.58a0.68,0.68,0,0,0,0-1.36h-0.58a2.753,2.753,0,0,0-2.719,2.77,2.588,2.588,0,0,0,2.561,2.61,1.41,1.41,0,0,1,1.393,1.42v0.08l-0.564.73a1.943,1.943,0,0,1-.629.53,2.138,2.138,0,0,1-.852.24,1.886,1.886,0,0,1-.522-0.04h-0.008c-0.1-.02-0.2-0.05-0.3-0.08a1.923,1.923,0,0,1-1.171-1.24l-0.183-.62a0.653,0.653,0,0,0-.541-0.47l-0.625-.09a2.4,2.4,0,0,1-1.919-1.66l-0.277-.88a0.663,0.663,0,0,0-.631-0.46,0.742,0.742,0,0,0-.148.01l-0.883.21a2.387,2.387,0,0,1-.534.05,2.009,2.009,0,0,1-1.483-.71l-0.651-.78a0.648,0.648,0,0,0-.459-0.24,0.664,0.664,0,0,0-.487.16l-0.757.69a1.971,1.971,0,0,1-1.584.46,2.02,2.02,0,0,1-1.418-.9l-0.5-.86a0.658,0.658,0,0,0-.908-0.24l-0.849.51a1.263,1.263,0,0,1-.311.12,0.862,0.862,0,0,1-.172.04,1.731,1.731,0,0,1-.236.02h-0.054a2.008,2.008,0,0,1-.9-0.24c-0.092-.05-0.182-0.11-0.263-0.16l-0.051-.04a0.094,0.094,0,0,0-.031-0.02,1.466,1.466,0,0,1-.12-0.11c-0.087-.08-0.147-0.14-0.193-0.19-0.061-.08-0.118-0.16-0.168-0.24-0.018-.03-0.036-0.06-0.053-0.09a0.675,0.675,0,0,1-.045-0.1,1.434,1.434,0,0,1-.084-0.22,1.368,1.368,0,0,1-.042-0.36l0.007-.81a0.677,0.677,0,0,0-.52-0.67l-0.784-.18a1.075,1.075,0,0,1-.32-0.12,2.174,2.174,0,0,1-.179-0.13,0.6,0.6,0,0,1-.091-0.08,0.184,0.184,0,0,1-.037-0.04l-0.022-.02a2.507,2.507,0,0,1-.186-0.24c-0.042-.07-0.091-0.16-0.136-0.25-0.022-.05-0.045-0.1-0.066-0.15-0.005-.01-0.011-0.04-0.017-0.06l-0.014-.04c-0.034-.11-0.063-0.23-0.087-0.34a1.815,1.815,0,0,1,.534-1.69l0.707-.56a0.682,0.682,0,0,0,.159-0.89l-0.469-.77a1.762,1.762,0,0,1-.15-0.32,2.034,2.034,0,0,1-.072-0.44,2.189,2.189,0,0,1,.232-1.02c0.051-.1.1-0.18,0.142-0.26s0.112-.15.175-0.22l0.019-.02a1.682,1.682,0,0,1,.344-0.31l0.019-.01a1.159,1.159,0,0,1,.336-0.17c0.06-.02.113-0.04,0.158-0.05l0.176-.03,0.947-.09a0.666,0.666,0,0,0,.6-0.71l-0.051-.96a1.668,1.668,0,0,1,.161-0.76,2.168,2.168,0,0,1,.243-0.4,1.952,1.952,0,0,1,.354-0.36,3.417,3.417,0,0,1,.423-0.28,2.647,2.647,0,0,1,.441-0.15,1.881,1.881,0,0,1,.4-0.04h0.038a1.813,1.813,0,0,1,.362.06l0.924,0.25a1.442,1.442,0,0,1-.008,2,2.809,2.809,0,0,0,0,3.92l0.068,0.07a2.688,2.688,0,0,0,3.846,0,1.221,1.221,0,0,1,1.746,0,1.429,1.429,0,0,1,0,2l-0.41.42a0.69,0.69,0,0,0,0,.96,0.674,0.674,0,0,0,.938,0l0.41-.42a2.814,2.814,0,0,0,0-3.92,2.526,2.526,0,0,0-3.622,0,1.365,1.365,0,0,1-1.97,0l-0.068-.07a1.417,1.417,0,0,1-.408-1,1.441,1.441,0,0,1,.408-1.01,2.809,2.809,0,0,0,.024-3.89l0.133-.49a1.867,1.867,0,0,1,.386-0.68,2.265,2.265,0,0,1,.345-0.3,2.727,2.727,0,0,1,.434-0.24,2.086,2.086,0,0,1,.775-0.15,1.826,1.826,0,0,1,.878.22l0.857,0.49a0.653,0.653,0,0,0,.9-0.26l0.486-.86a1.959,1.959,0,0,1,1.379-.95,2.3,2.3,0,0,1,.369-0.03,1.884,1.884,0,0,1,1.24.44l0.523,0.47v2.1a2.747,2.747,0,0,0,2.72,2.77,1.41,1.41,0,0,1,1.393,1.42v0.1a1.4,1.4,0,0,1-1.393,1.42,2.588,2.588,0,0,0-2.561,2.61,2.746,2.746,0,0,0,2.719,2.77h0.58a0.675,0.675,0,0,0,0-1.35h-0.58a1.41,1.41,0,0,1-1.393-1.42,1.252,1.252,0,0,1,1.235-1.26,2.746,2.746,0,0,0,2.719-2.77v-0.1a2.753,2.753,0,0,0-2.719-2.77,1.4,1.4,0,0,1-1.393-1.42v-2.09q0-.03,0-0.06l0.5-.6a1.693,1.693,0,0,1,.262-0.25,2.267,2.267,0,0,1,.362-0.22,2.091,2.091,0,0,1,.82-0.18h0.093a2.019,2.019,0,0,1,.866.21,3.268,3.268,0,0,1,.354.23,1.363,1.363,0,0,1,.255.26l0.621,0.8a0.64,0.64,0,0,0,.448.26,0.674,0.674,0,0,0,.491-0.15l0.779-.65a1.965,1.965,0,0,1,1.624-.35,1.941,1.941,0,0,1,1.343.99l0.453,0.89a0.653,0.653,0,0,0,.892.3l0.876-.46a1.728,1.728,0,0,1,.792-0.19,2.082,2.082,0,0,1,.872.2,1.968,1.968,0,0,1,1.1,1.27l0.079,0.36a2.67,2.67,0,0,0-1.157,1.01,2.886,2.886,0,0,0-.421,2.09,1.273,1.273,0,0,1-.2.94,1.21,1.21,0,0,1-.794.52,1.34,1.34,0,0,1-1.043-.23,1.4,1.4,0,0,1-.578-0.91l-0.1-.58a0.663,0.663,0,1,0-1.305.24l0.1,0.58a2.752,2.752,0,0,0,1.129,1.78,2.629,2.629,0,0,0,1.541.5,2.768,2.768,0,0,0,.494-0.05,2.567,2.567,0,0,0,1.647-1.08,2.652,2.652,0,0,0,.412-1.96,1.545,1.545,0,0,1,.224-1.1,1.338,1.338,0,0,1,.879-0.61h0.026c0.023-.01.047-0.01,0.07-0.02l0.956-.21,0.189-.03H430.6a1.666,1.666,0,0,1,.388.05,2.693,2.693,0,0,1,.434.17,2.373,2.373,0,0,1,.424.3,2.26,2.26,0,0,1,.571.81,1.815,1.815,0,0,1,.11.4,1.858,1.858,0,0,1,.006.42l-0.1.92a0.678,0.678,0,0,0,.532.74l0.892,0.18a1.281,1.281,0,0,1,.382.13,1.633,1.633,0,0,1,.357.24c0.028,0.03.064,0.06,0.116,0.12,0.069,0.08.132,0.16,0.2,0.25l0.009,0.01a1.2,1.2,0,0,1,.09.16l0.016,0.02c0.044,0.09.092,0.19,0.116,0.25a2.183,2.183,0,0,1,.134,1.05,2,2,0,0,1-.052.27,1.293,1.293,0,0,1-.059.16,1.164,1.164,0,0,1-.149.27l-0.6.71a0.686,0.686,0,0,0,.035.92l0.653,0.66a1.315,1.315,0,0,1,.124.14c0.02,0.03.039,0.05,0.057,0.08l0.09,0.14a2.078,2.078,0,0,1,.18.36A2.137,2.137,0,0,1,435.658,2672.09Z" transform="translate(-395 -2655)"/>
</svg>
