<svg xmlns="http://www.w3.org/2000/svg" width="38" height="38" viewBox="0 0 38 38">
  <path d="M833.608,3289.03a2.157,2.157,0,0,1,1.762.91,0.554,0.554,0,0,0,1.013-.32v-6.06a0.558,0.558,0,0,0-.557-0.56H820.557a0.558,0.558,0,0,0-.557.56v3.83a0.557,0.557,0,1,0,1.114,0v-3.28h14.154v4.26a3.255,3.255,0,1,0,0,5.61v4.26H829.71a0.558,0.558,0,0,0-.314,1.02,2.145,2.145,0,1,1-2.417,0,0.558,0.558,0,0,0-.314-1.02h-5.551v-9a0.557,0.557,0,0,0-1.114,0v9.56a0.556,0.556,0,0,0,.557.55h4.835a3.26,3.26,0,1,0,5.591,0h4.842a0.557,0.557,0,0,0,.558-0.55v-6.07a0.556,0.556,0,0,0-.389-0.53,0.546,0.546,0,0,0-.624.21A2.148,2.148,0,1,1,833.608,3289.03Zm23.835,7.75a0.558,0.558,0,0,0,.557-0.56v-5.94a0.558,0.558,0,0,0-.557-0.56H842.332a0.558,0.558,0,0,0-.557.56v4.77a3.145,3.145,0,0,0-1.644-.46,3.23,3.23,0,1,0,0,6.46,3.145,3.145,0,0,0,1.644-.46v4.21H836.31a0.56,0.56,0,0,0-.531.39,0.567,0.567,0,0,0,.211.63,2.117,2.117,0,1,1-2.434,0,0.565,0.565,0,0,0,.21-0.63,0.56,0.56,0,0,0-.531-0.39h-6.014a0.558,0.558,0,0,0-.557.56v8.79a0.558,0.558,0,0,0,1.115,0v-8.23h4.205a3.232,3.232,0,1,0,5.577,0h4.214v5.48a0.556,0.556,0,0,0,.392.53,0.564,0.564,0,0,0,.625-0.22,2.11,2.11,0,0,1,3.852,1.19,2.105,2.105,0,0,1-3.852,1.19,0.56,0.56,0,0,0-1.017.32v5.48h-14V3316a0.558,0.558,0,0,0-1.115,0v4.44a0.558,0.558,0,0,0,.557.56h30.222a0.558,0.558,0,0,0,.557-0.56v-22.36a0.557,0.557,0,1,0-1.114,0v6.72H852.68a3.167,3.167,0,0,0,.443-1.62c0-.01,0-0.01,0-0.02h0a3.232,3.232,0,0,0-6.463,0h0v0.02a3.167,3.167,0,0,0,.443,1.62h-4.214v-5.47a0.556,0.556,0,0,0-1.017-.32,2.11,2.11,0,1,1,0-2.38,0.564,0.564,0,0,0,.625.22,0.556,0.556,0,0,0,.392-0.53v-5.48h14v5.38A0.558,0.558,0,0,0,857.443,3296.78Zm-14.554,9.14h5.5a0.558,0.558,0,0,0,.315-1.02,2.117,2.117,0,1,1,2.385,0,0.558,0.558,0,0,0,.314,1.02h5.488v13.97h-14v-4.2a3.311,3.311,0,0,0,1.638.44h0.006a3.225,3.225,0,1,0,0-6.45h-0.006a3.209,3.209,0,0,0-1.638.44v-4.2Z" transform="translate(-820 -3283)"/>
</svg>
