<svg xmlns="http://www.w3.org/2000/svg" width="37" height="39" viewBox="0 0 37 39">
  <path d="M1274.04,3181.82a17.273,17.273,0,0,0-23.94,0,16.133,16.133,0,0,0-4.96,11.49l-3.08,5.99a0.551,0.551,0,0,0,.23.74l2.85,1.67v8.83a0.589,0.589,0,0,0,.59.58h5.7v4.31a0.585,0.585,0,0,0,1.17,0v-4.89a0.578,0.578,0,0,0-.58-0.57h-5.7v-8.59a0.576,0.576,0,0,0-.29-0.49l-2.67-1.56,2.9-5.63a0.542,0.542,0,0,0,.06-0.25,15.756,15.756,0,0,1,31.5,0,15.075,15.075,0,0,1-6.06,12.06,0.564,0.564,0,0,0-.22.45v9.47a0.581,0.581,0,0,0,.59.57,0.587,0.587,0,0,0,.59-0.57v-9.19A16.141,16.141,0,0,0,1274.04,3181.82Zm1.37,11.07-5.79-1.41,4.29-4.03a0.564,0.564,0,0,0,.1-0.7,0.575,0.575,0,0,0-.67-0.26l-5.75,1.59,1.65-5.58a0.565,0.565,0,0,0-.28-0.65,0.59,0.59,0,0,0-.71.1l-4.16,4.17-1.45-5.63a0.58,0.58,0,0,0-.57-0.44,0.588,0.588,0,0,0-.57.44l-1.45,5.63-4.15-4.17a0.607,0.607,0,0,0-.72-0.1,0.547,0.547,0,0,0-.27.65l1.64,5.58-5.75-1.59a0.573,0.573,0,0,0-.57.96l4.29,4.03-5.79,1.41a0.586,0.586,0,0,0-.45.56,0.575,0.575,0,0,0,.45.55l5.79,1.41-4.29,4.04a0.563,0.563,0,0,0-.1.69,0.6,0.6,0,0,0,.67.27l5.75-1.6-1.64,5.58a0.556,0.556,0,0,0,.27.66,0.607,0.607,0,0,0,.72-0.1l4.15-4.17,1.45,5.63a0.591,0.591,0,0,0,.57.43,0.582,0.582,0,0,0,.57-0.43l1.45-5.63,4.16,4.17a0.59,0.59,0,0,0,.72.09,0.572,0.572,0,0,0,.27-0.65l-1.65-5.58,5.75,1.6a0.593,0.593,0,0,0,.66-0.26,0.549,0.549,0,0,0-.09-0.7l-4.29-4.04,5.79-1.41a0.575,0.575,0,0,0,.45-0.55A0.586,0.586,0,0,0,1275.41,3192.89Zm-7.11,1.66a0.572,0.572,0,0,0-.26.97l3.36,3.16-4.5-1.25a0.588,0.588,0,0,0-.73.71l1.29,4.37-3.26-3.27a0.6,0.6,0,0,0-.99.26l-1.14,4.41-1.14-4.41a0.594,0.594,0,0,0-.99-0.26l-3.25,3.27,1.28-4.37a0.585,0.585,0,0,0-.73-0.71l-4.5,1.25,3.37-3.16a0.577,0.577,0,0,0-.27-0.97l-4.54-1.1,4.54-1.11a0.569,0.569,0,0,0,.27-0.96l-3.37-3.16,4.5,1.24a0.579,0.579,0,0,0,.73-0.7l-1.28-4.38,3.25,3.27a0.594,0.594,0,0,0,.99-0.26l1.14-4.41,1.14,4.41a0.6,0.6,0,0,0,.99.26l3.26-3.27-1.29,4.38a0.584,0.584,0,0,0,.73.7l4.5-1.25-3.36,3.17a0.533,0.533,0,0,0-.16.56,0.553,0.553,0,0,0,.42.4l4.54,1.11Zm-5.4-2.59a0.58,0.58,0,0,0,.58-0.58v-1.69a1.4,1.4,0,0,0-1.41-1.38,1.455,1.455,0,0,0-1.49,1.38v0.01l0.08,4a1.411,1.411,0,0,0,2.82,0,0.585,0.585,0,0,0-1.17,0,0.233,0.233,0,0,1-.24.22,0.224,0.224,0,0,1-.23-0.22v-0.02l-0.08-3.99a0.312,0.312,0,0,1,.31-0.23,0.235,0.235,0,0,1,.24.23v1.69A0.583,0.583,0,0,0,1262.9,3191.96Zm0.48,4.41h0Zm0,0a1.435,1.435,0,0,0-2.66.12,1.353,1.353,0,0,0,.51,1.51,1.447,1.447,0,0,0,1.63.04A1.374,1.374,0,0,0,1263.38,3196.37Zm-1.08.58a0.235,0.235,0,0,1-.46-0.09A0.235,0.235,0,0,1,1262.3,3196.95Z" transform="translate(-1242 -3177)"/>
</svg>
