<svg xmlns="http://www.w3.org/2000/svg" width="43" height="43" viewBox="0 0 43 43">
  <path d="M438,3193.13c0-5.36-2.791-10.42-7.657-13.87a0.628,0.628,0,0,0-.88.15,0.638,0.638,0,0,0,.149.88c4.529,3.21,7.126,7.89,7.126,12.84,0,7.22-5.5,13.63-13.676,15.97a0.636,0.636,0,0,0-.422.81l2.023,5.77-7.692-5.55a0.612,0.612,0,0,0-.369-0.12h-0.1c-11.159,0-20.238-7.57-20.238-16.88s9.079-16.87,20.238-16.87a23.261,23.261,0,0,1,10.519,2.46,0.633,0.633,0,0,0,.572-1.13A24.648,24.648,0,0,0,416.5,3175a23.544,23.544,0,0,0-15.162,5.27,16.216,16.216,0,0,0,0,25.72,23.468,23.468,0,0,0,15.061,5.28l9.156,6.61a0.629,0.629,0,0,0,.965-0.72l-2.47-7.04C432.422,3207.48,438,3200.72,438,3193.13Zm-26.886-13.42a4.675,4.675,0,0,0-4.627,4.04h-0.126a5.356,5.356,0,0,0-5.3,5.35,5.34,5.34,0,0,1,0,8.07,5.353,5.353,0,0,0,5.343,5.35h0.085a4.67,4.67,0,0,0,9.3-.63v-17.51A4.679,4.679,0,0,0,411.114,3179.71Zm3.409,22.18a3.408,3.408,0,0,1-6.784.46,5.265,5.265,0,0,0,2.4-1.36,0.63,0.63,0,0,0-.883-0.9,4.195,4.195,0,0,1-2.857,1.17,4.094,4.094,0,0,1-4.081-4.09,4.052,4.052,0,0,1,1.973-3.49,4.007,4.007,0,0,1,2.108-.59,0.632,0.632,0,0,0,.631-0.63,0.639,0.639,0,0,0-.631-0.63,5.221,5.221,0,0,0-2.4.57,4.085,4.085,0,0,1,2.4-7.39,6.016,6.016,0,0,1,.6.05,4.025,4.025,0,0,1,2.315,1.18,0.634,0.634,0,0,0,.9-0.89,5.367,5.367,0,0,0-2.48-1.43,3.407,3.407,0,0,1,6.783.46v17.51h0Zm15.576-8.76a5.284,5.284,0,0,0,1.842-4.03,5.357,5.357,0,0,0-5.3-5.35h-0.124a4.67,4.67,0,0,0-9.3.63v17.51a4.67,4.67,0,0,0,9.3.63H426.6A5.35,5.35,0,0,0,430.1,3193.13Zm-3.5,8.13a6.016,6.016,0,0,1-.6-0.05,4.024,4.024,0,0,1-2.257-1.12,0.63,0.63,0,0,0-.883.9,5.362,5.362,0,0,0,2.4,1.36,3.408,3.408,0,0,1-6.783-.46v-17.51a3.407,3.407,0,0,1,6.783-.46,5.3,5.3,0,0,0-2.48,1.44,0.627,0.627,0,0,0-.032.84,0.64,0.64,0,0,0,.934.04,4.025,4.025,0,0,1,2.315-1.18,6.016,6.016,0,0,1,.6-0.05,4.085,4.085,0,0,1,2.4,7.39,5.221,5.221,0,0,0-2.4-.57,0.63,0.63,0,1,0,0,1.26,4.007,4.007,0,0,1,2.108.59,4.052,4.052,0,0,1,1.973,3.49A4.094,4.094,0,0,1,426.6,3201.26Z" transform="translate(-395 -3175)"/>
</svg>
