<svg xmlns="http://www.w3.org/2000/svg"  width="36" height="45.5" viewBox="0 0 36 45.5">
  <path d="M1268.5,3001.44h-1.21v-1.32a0.11,0.11,0,0,0-.06-0.1,0.123,0.123,0,0,0-.13-0.01,9.677,9.677,0,0,1-6.2,0,0.123,0.123,0,0,0-.13.01,0.11,0.11,0,0,0-.06.1v1.32h-1.21a0.493,0.493,0,0,0-.5.49v0.65a0.5,0.5,0,0,0,.5.5h1.21v0.88a0.434,0.434,0,0,0,.26.39,8.465,8.465,0,0,0,3.03.47,8.376,8.376,0,0,0,3.03-.47,0.434,0.434,0,0,0,.26-0.39v-0.88h1.21a0.5,0.5,0,0,0,.5-0.5v-0.65A0.493,0.493,0,0,0,1268.5,3001.44Zm-6.38,1.99a0.375,0.375,0,0,1-.75,0v-1.79a0.375,0.375,0,0,1,.75,0v1.79Zm6.38,3.09h-1.21v-1.32a0.11,0.11,0,0,0-.06-0.1,0.123,0.123,0,0,0-.13-0.01,9.677,9.677,0,0,1-6.2,0,0.123,0.123,0,0,0-.13.01,0.11,0.11,0,0,0-.06.1v1.32h-1.21a0.487,0.487,0,0,0-.5.49v0.65a0.493,0.493,0,0,0,.5.49h1.21v0.88a0.438,0.438,0,0,0,.26.4,8.465,8.465,0,0,0,3.03.47,8.6,8.6,0,0,0,3.03-.47,0.438,0.438,0,0,0,.26-0.4v-0.88h1.21a0.493,0.493,0,0,0,.5-0.49v-0.65A0.487,0.487,0,0,0,1268.5,3006.52Zm-6.38,1.98a0.375,0.375,0,0,1-.75,0v-1.79a0.375,0.375,0,0,1,.75,0v1.79Zm6.38,3.12h-1.21v-1.32a0.11,0.11,0,0,0-.06-0.1,0.123,0.123,0,0,0-.13-0.01,9.677,9.677,0,0,1-6.2,0,0.123,0.123,0,0,0-.13.01,0.11,0.11,0,0,0-.06.1v1.32h-1.21a0.493,0.493,0,0,0-.5.49v0.65a0.493,0.493,0,0,0,.5.49h1.21v0.88a0.438,0.438,0,0,0,.26.4,8.465,8.465,0,0,0,3.03.47,8.6,8.6,0,0,0,3.03-.47,0.438,0.438,0,0,0,.26-0.4v-0.88h1.21a0.493,0.493,0,0,0,.5-0.49v-0.65A0.493,0.493,0,0,0,1268.5,3011.62Zm-6.38,2.13a0.375,0.375,0,0,1-.75,0v-1.79a0.375,0.375,0,0,1,.75,0v1.79Z" transform="translate(-1242 -2970)"/>
  <path d="M1273.18,2974.82a16.471,16.471,0,0,0-28.12,11.49l-3,5.99a0.566,0.566,0,0,0,.22.74l2.78,1.67v8.83a0.572,0.572,0,0,0,.57.58h5.54v4.31a0.575,0.575,0,0,0,1.15,0v-4.89a0.576,0.576,0,0,0-.57-0.57h-5.55v-8.59a0.579,0.579,0,0,0-.27-0.49l-2.61-1.56,2.82-5.63a0.542,0.542,0,0,0,.06-0.25,15.325,15.325,0,1,1,24.76,12.06,0.564,0.564,0,0,0-.22.45v9.47a0.575,0.575,0,0,0,1.15,0v-9.19A16.441,16.441,0,0,0,1273.18,2974.82Z" transform="translate(-1242 -2970)"/>
</svg>
