<svg xmlns="http://www.w3.org/2000/svg" width="31" height="42" viewBox="0 0 31 42">
  <path d="M424.644,3073.76a2.194,2.194,0,0,0-2.175,2.21,2.226,2.226,0,0,0,.228.98l-5.947,6.04a0.7,0.7,0,0,0-.2.49v17.29a0.694,0.694,0,1,0,1.388,0v-17l5.743-5.83a2.1,2.1,0,0,0,.966.23A2.205,2.205,0,0,0,424.644,3073.76Zm0,3.01a0.8,0.8,0,1,1,.787-0.8A0.8,0.8,0,0,1,424.644,3076.77Zm5.182,12.77a2.177,2.177,0,0,0-2.06,1.51h-3.909v-4.27l2.782-2.82a2.231,2.231,0,0,0,.966.23,2.207,2.207,0,1,0-1.947-1.23l-2.985,3.03a0.706,0.706,0,0,0-.2.5v17.29a0.695,0.695,0,1,0,1.389,0v-11.32h3.908A2.182,2.182,0,1,0,429.826,3089.54Zm-2.221-8.36a0.8,0.8,0,1,1-.786.8A0.8,0.8,0,0,1,427.605,3081.18Zm2.221,11.37a0.8,0.8,0,1,1,.786-0.8A0.8,0.8,0,0,1,429.826,3092.55Zm-10.613-17.08-2.245-2.28a2.24,2.24,0,0,0,.227-0.98,2.175,2.175,0,1,0-2.175,2.21,2.231,2.231,0,0,0,.966-0.23l1.754,1.78-6.912,7.02a0.7,0.7,0,0,0-.2.49v26.31a0.694,0.694,0,1,0,1.388,0v-26.02l7.2-7.31A0.7,0.7,0,0,0,419.213,3075.47Zm-4.193-2.46a0.8,0.8,0,1,1,.787-0.8A0.795,0.795,0,0,1,415.02,3073.01Zm-6.958,17.45-2.859-2.42a2.25,2.25,0,0,0,.148-0.8,2.175,2.175,0,1,0-2.175,2.21,2.116,2.116,0,0,0,1.138-.33l2.61,2.21v14.7a0.694,0.694,0,1,0,1.388,0V3091A0.7,0.7,0,0,0,408.062,3090.46Zm-4.886-2.42a0.8,0.8,0,1,1,.787-0.8A0.8,0.8,0,0,1,403.176,3088.04Zm14.065,15.41a0.7,0.7,0,0,0-.694.7v7.15a0.694,0.694,0,1,0,1.388,0v-7.15A0.694,0.694,0,0,0,417.241,3103.45Zm-2.961-11.65a0.7,0.7,0,0,0-.694.7v17.29a0.694,0.694,0,1,0,1.388,0V3092.5A0.7,0.7,0,0,0,414.28,3091.8Zm0-6.77a0.7,0.7,0,0,0-.694.71v2.25a0.694,0.694,0,1,0,1.388,0v-2.25A0.7,0.7,0,0,0,414.28,3085.03Zm5.922,5.27a0.7,0.7,0,0,0-.694.7v18.04a0.694,0.694,0,1,0,1.388,0V3091A0.694,0.694,0,0,0,420.2,3090.3Zm0-6.77a0.7,0.7,0,0,0-.694.7v3.01a0.694,0.694,0,1,0,1.388,0v-3.01A0.7,0.7,0,0,0,420.2,3083.53Zm-8.392-5.81a0.7,0.7,0,0,0-.982,0l-5.182,5.27a0.7,0.7,0,0,0,0,.99l2.962,3.01a0.689,0.689,0,0,0,1.018-.04,0.725,0.725,0,0,0-.037-0.96l-2.47-2.51,4.691-4.76A0.717,0.717,0,0,0,411.81,3077.72Z" transform="translate(-401 -3070)"/>
</svg>
