<svg xmlns="http://www.w3.org/2000/svg" xmlns:xlink="http://www.w3.org/1999/xlink" width="29" height="43.03" viewBox="0 0 29 43.03">
<defs>
    <filter id="filter" x="402" y="2969.97" width="28" height="42.03" filterUnits="userSpaceOnUse">
      <feFlood result="flood" flood-color="#fff"/>
      <feComposite result="composite" operator="in" in2="SourceGraphic"/>
      <feBlend result="blend" in2="SourceGraphic"/>
    </filter>
  </defs>
  <g transform="translate(-401.5 -2969.47)" style="fill: none; filter: url(#filter)">
    <path id="Forma_1" data-name="Forma 1" class="cls-1" d="M428.6,2973.99H425.21v-3.67a0.336,0.336,0,0,0-.172-0.3,0.365,0.365,0,0,0-.351-0.02c-1.706.85-4.957,1.42-8.687,1.42s-6.981-.57-8.687-1.42a0.368,0.368,0,0,0-.352.02,0.337,0.337,0,0,0-.171.3v3.67H403.4a1.394,1.394,0,0,0-1.4,1.38v1.84a1.394,1.394,0,0,0,1.4,1.38h3.386v2.46a1.218,1.218,0,0,0,.713,1.11c2.234,1.03,6.145,1.32,8.5,1.32,2.54,0,6.33-.33,8.5-1.32a1.219,1.219,0,0,0,.714-1.11v-2.46H428.6a1.394,1.394,0,0,0,1.4-1.38v-1.84A1.394,1.394,0,0,0,428.6,2973.99Zm-17.871,5.59a1.043,1.043,0,0,1-2.085,0v-5.02a1.043,1.043,0,0,1,2.085,0v5.02Zm17.871,8.64H425.21v-3.67a0.336,0.336,0,0,0-.172-0.3,0.365,0.365,0,0,0-.351-0.02c-1.706.85-4.957,1.42-8.687,1.42s-6.981-.57-8.687-1.42a0.368,0.368,0,0,0-.352.02,0.337,0.337,0,0,0-.171.3v3.67H403.4a1.394,1.394,0,0,0-1.4,1.38v1.84a1.394,1.394,0,0,0,1.4,1.38h3.386v2.46a1.229,1.229,0,0,0,.713,1.11c2.234,1.03,6.145,1.32,8.5,1.32,2.54,0,6.33-.33,8.5-1.32a1.23,1.23,0,0,0,.714-1.11v-2.46H428.6a1.394,1.394,0,0,0,1.4-1.38v-1.84A1.394,1.394,0,0,0,428.6,2988.22Zm-17.871,5.58a1.043,1.043,0,0,1-2.085,0v-5.02a1.043,1.043,0,0,1,2.085,0v5.02Zm17.871,8.71H425.21v-3.67a0.348,0.348,0,0,0-.172-0.3,0.365,0.365,0,0,0-.351-0.02c-1.706.85-4.957,1.42-8.687,1.42s-6.981-.57-8.687-1.42a0.368,0.368,0,0,0-.352.02,0.349,0.349,0,0,0-.171.3v3.67H403.4a1.394,1.394,0,0,0-1.4,1.38v1.84a1.394,1.394,0,0,0,1.4,1.38h3.386v2.46a1.218,1.218,0,0,0,.713,1.11c2.234,1.03,6.145,1.32,8.5,1.32,2.54,0,6.33-.33,8.5-1.32a1.219,1.219,0,0,0,.714-1.11v-2.46H428.6a1.394,1.394,0,0,0,1.4-1.38v-1.84A1.394,1.394,0,0,0,428.6,3002.51Zm-17.871,5.99a1.043,1.043,0,0,1-2.085,0v-5.02a1.043,1.043,0,0,1,2.085,0v5.02Z" style="stroke: inherit; filter: none; fill: inherit"/>
  </g>
  <use transform="translate(-401.5 -2969.47)" xlink:href="#Forma_1" style="stroke: #333; filter: none; fill: none"/>
</svg>
