<svg xmlns="http://www.w3.org/2000/svg" width="36" height="32" viewBox="0 0 36 32">
  <path d="M407.527,3296.52a0.749,0.749,0,0,0-1.018.29l-0.015.02a0.719,0.719,0,0,0,.3.99,0.774,0.774,0,0,0,.36.09,0.758,0.758,0,0,0,.658-0.38l0.015-.03A0.708,0.708,0,0,0,407.527,3296.52Zm24,2.31a14.706,14.706,0,0,0-8.949-9.88,5.916,5.916,0,0,0-11.16,0,14.853,14.853,0,0,0-6.672,5.11,14.272,14.272,0,0,0-2.279,4.77,3.628,3.628,0,0,0,0,7.25,15.124,15.124,0,0,0,29.056,0A3.628,3.628,0,0,0,431.529,3298.83Zm-31.029,3.62a2.193,2.193,0,0,1,1.656-2.1c-0.065.43-.109,0.87-0.134,1.31a0.134,0.134,0,0,1,0,.02c0,0.08-.008.16-0.011,0.24l0,0.09c0,0.06,0,.12,0,0.17q0,0.135,0,.27c0,0.11,0,.22,0,0.34,0,0.03,0,.06,0,0.1,0,0.08.006,0.16,0.01,0.24,0,0.03,0,.07,0,0.1,0.006,0.1.013,0.2,0.02,0.3,0,0.05.008,0.09,0.012,0.14s0.01,0.12.016,0.18,0.011,0.1.016,0.15,0.014,0.13.022,0.19c0.01,0.08.02,0.16,0.031,0.23,0.006,0.05.012,0.09,0.019,0.14A2.2,2.2,0,0,1,400.5,3302.45Zm16.5-16a4.413,4.413,0,0,1,3.637,1.9h-0.085a4.208,4.208,0,0,0-4.228,4.14,4.079,4.079,0,0,0,.8,2.42H417A4.232,4.232,0,1,1,417,3286.45Zm13.5,16.35c0,0.02,0,.03,0,0.05q0,0.15-.012.3c0,0.01,0,.03,0,0.05-0.006.09-.012,0.19-0.02,0.29l-0.006.06c-0.008.09-.016,0.18-0.026,0.28,0,0.03-.007.05-0.01,0.08-0.01.08-.02,0.17-0.031,0.25,0,0.04-.011.08-0.016,0.11-0.01.08-.021,0.15-0.033,0.22-0.008.05-.017,0.1-0.025,0.15s-0.021.12-.032,0.18-0.023.12-.036,0.18c-0.009.04-.018,0.09-0.028,0.13a13.59,13.59,0,0,1-26.433-.01c-0.012-.05-0.023-0.11-0.033-0.16s-0.021-.1-0.031-0.16-0.026-.14-0.039-0.22c-0.006-.03-0.012-0.07-0.017-0.1-0.015-.09-0.029-0.19-0.042-0.28,0-.02,0-0.03-0.007-0.05-0.014-.11-0.028-0.22-0.04-0.33h0a12.955,12.955,0,0,1-.073-1.37c0-.1,0-0.2,0-0.3,0-.04,0-0.07,0-0.1,0-.07,0-0.14.009-0.21l0.006-.12c0-.06.008-0.13,0.012-0.19,0.008-.1.017-0.21,0.027-0.31,0-.01,0-0.03,0-0.04a13.2,13.2,0,0,1,7.577-10.52c0,0.01,0,.01,0,0.02a5.551,5.551,0,0,0,.21,1.51,11.739,11.739,0,0,0-3.519,2.76,0.708,0.708,0,0,0,.089,1.02,0.735,0.735,0,0,0,.484.17,0.76,0.76,0,0,0,.573-0.26,10.374,10.374,0,0,1,2.957-2.35,5.9,5.9,0,0,0,5.065,2.83,6.02,6.02,0,0,0,1.934-.31,0.751,0.751,0,0,0,.5-0.6,0.719,0.719,0,0,0-.338-0.7,2.66,2.66,0,0,1-1.269-2.26,2.727,2.727,0,0,1,2.676-2.68,13.263,13.263,0,0,1,9.714,9.96c0.017,0.08.033,0.16,0.049,0.24,0.008,0.04.015,0.08,0.023,0.12,0.012,0.06.023,0.13,0.034,0.19,0.007,0.04.013,0.08,0.02,0.12,0.011,0.07.022,0.15,0.032,0.22,0,0.03.009,0.06,0.014,0.09,0.028,0.21.051,0.43,0.069,0.64,0,0.03,0,.05.006,0.08,0.006,0.08.012,0.16,0.017,0.24,0,0.03,0,.07,0,0.1,0,0.08.007,0.16,0.01,0.23l0,0.09c0,0.11,0,.22,0,0.32C430.5,3302.57,430.5,3302.68,430.5,3302.8Zm1.348,1.76c0.008-.06.016-0.11,0.023-0.17s0.016-.11.023-0.17,0.018-.15.026-0.22q0.009-.075.015-0.15c0.007-.06.012-0.12,0.018-0.19,0-.04.008-0.08,0.011-0.13,0.008-.1.014-0.2,0.02-0.3,0-.03,0-0.07,0-0.1,0-.08.007-0.16,0.01-0.24,0-.04,0-0.07,0-0.1,0-.11,0-0.23,0-0.34,0-.09,0-0.19,0-0.28,0-.04,0-0.07,0-0.11,0-.06,0-0.12-0.006-0.18,0-.04,0-0.08-0.006-0.13s-0.005-.1-0.008-0.15-0.006-.09-0.009-0.14-0.007-.1-0.011-0.14l-0.012-.15-0.014-.14c0-.05-0.01-0.1-0.015-0.14-0.006-.06-0.013-0.11-0.019-0.16-0.008-.07-0.015-0.12-0.023-0.18s-0.018-.14-0.028-0.2A2.166,2.166,0,0,1,431.843,3304.56Zm-17.511-1.26a3.024,3.024,0,0,0-5.8,0,0.727,0.727,0,0,0,.531.89,0.757,0.757,0,0,0,.918-0.52,1.512,1.512,0,0,1,2.9,0,0.742,0.742,0,0,0,.724.54,1.3,1.3,0,0,0,.195-0.02A0.726,0.726,0,0,0,414.332,3303.3Zm8.234-2.16a2.994,2.994,0,0,0-2.9,2.16,0.726,0.726,0,0,0,.531.89,0.757,0.757,0,0,0,.918-0.52,1.512,1.512,0,0,1,2.9,0,0.741,0.741,0,0,0,.724.54,1.29,1.29,0,0,0,.194-0.02,0.726,0.726,0,0,0,.531-0.89A2.994,2.994,0,0,0,422.566,3301.14Zm-3.2,7.26a0.761,0.761,0,0,0-.919.51,1.512,1.512,0,0,1-2.9,0,0.759,0.759,0,0,0-.918-0.51,0.723,0.723,0,0,0-.531.89,3.024,3.024,0,0,0,5.8,0A0.722,0.722,0,0,0,419.368,3308.4Z" transform="translate(-399 -3285)"/>
</svg>
