<svg width="38" height="42" viewBox="0 0 44 59" xmlns="http://www.w3.org/2000/svg">
  <path d="m21.791433,12.145185c-0.799999,0 -1.5,0.700001 -1.5,1.5l0,2.5c0,0.799999 0.700001,1.5 1.5,1.5s1.5,-0.700001 1.5,-1.5l0,-2.5c0,-0.899998 -0.600002,-1.5 -1.5,-1.5zm0,7.700001c-0.799999,0 -1.5,0.700001 -1.5,1.5l0,2.5c0,0.799999 0.700001,1.5 1.5,1.5s1.5,-0.700001 1.5,-1.5l0,-2.5c0,-0.799999 -0.600002,-1.5 -1.5,-1.5zm0,7.700001c-0.799999,0 -1.5,0.700001 -1.5,1.5l0,2.5c0,0.799997 0.700001,1.500002 1.5,1.500002s1.5,-0.700005 1.5,-1.500002l0,-2.5c0,-0.799999 -0.600002,-1.5 -1.5,-1.5zm0,7.700003c-0.799999,0 -1.5,0.699997 -1.5,1.5l0,2.5c0,0.799999 0.700001,1.5 1.5,1.5s1.5,-0.700001 1.5,-1.5l0,-2.5c0,-0.800003 -0.600002,-1.5 -1.5,-1.5zm0,7.799995c-0.799999,0 -1.5,0.700005 -1.5,1.5l0,2.5c0,0.800003 0.700001,1.5 1.5,1.5s1.5,-0.699997 1.5,-1.5l0,-2.5c0,-0.899994 -0.600002,-1.5 -1.5,-1.5zm0,7.700005c-0.799999,0 -1.5,0.699997 -1.5,1.5l0,2.5c0,0.799995 0.700001,1.5 1.5,1.5s1.5,-0.700005 1.5,-1.5l0,-2.5c0,-0.800003 -0.600002,-1.5 -1.5,-1.5zm-6.200002,-46.600004c-1.900002,2.300001 -4,3.400002 -6.299999,4.5c-2.100002,1.1 -4.2,2.200001 -6.100002,4.200001c-3.399998,3.700001 -1.999998,9.299999 -0.5,15.900002c1.5,6.4 3.200001,13.6 1.7,21.500002c0,0 0,0 0,0c-0.399997,1.299995 -0.700001,2.599998 -0.899997,4.199997c-0.100002,0.800003 0.399998,1.599998 1.299999,1.700005c0.099998,0 0.200001,0 0.200001,0c0.699997,0 1.399998,-0.5 1.5,-1.300003c0.599998,-3.699997 1.599999,-6.300003 2.699996,-8.800003c1.900002,-4.499996 3.800003,-9.299995 2.400002,-19.799997c-0.299999,-2.400002 -1,-5.200001 -1.900002,-7.5c-0.299999,-0.800003 -1.199996,-1.200001 -1.899997,-0.900002c-0.799999,0.299999 -1.200001,1.200001 -0.900002,1.900002c0.600002,1.599998 1.400002,4.199997 1.700001,6.799999c0.900001,6.9 0.299999,10.9 -0.700001,14.300001c-0.299999,-4.700001 -1.299999,-9.1 -2.200001,-12.900003c-1.399998,-6 -2.5,-10.699997 -0.199997,-13.199997c1.5,-1.700001 3.399998,-2.600002 5.299999,-3.600002c2.299999,-1.199999 4.899998,-2.5 7.200002,-5.299999c0.5,-0.6 0.5,-1.6 -0.200001,-2.1c-0.700001,-0.4 -1.700003,-0.299999 -2.200002,0.4zm24.900004,8.7c-1.900002,-2.1 -4,-3.200001 -6.100006,-4.200001c-2.200001,-1.199998 -4.299997,-2.299999 -6.299997,-4.5c-0.5,-0.599998 -1.5,-0.699999 -2.099998,-0.199999c-0.600002,0.5 -0.700001,1.5 -0.200001,2.1c2.299999,2.699998 4.899998,4.099998 7.200003,5.299999c1.900002,1 3.699997,1.900002 5.299995,3.599998c2.300003,2.5 1.200005,7.200001 -0.199997,13.200001c-0.900002,3.799999 -1.900002,8.200003 -2.199997,12.900003c-1.100006,-3.400002 -1.600006,-7.400002 -0.700005,-14.300001c0.300003,-2.600002 1.099998,-5.200001 1.700005,-6.800003c0.299995,-0.799999 -0.100006,-1.599998 -0.900002,-1.899998c-0.800003,-0.299999 -1.600006,0.099998 -1.900002,0.899998c-0.900002,2.300003 -1.600002,5.100002 -1.900005,7.5c-1.299997,10.600004 0.600006,15.300005 2.400005,19.800005c1,2.5 2.099998,5.099998 2.599998,8.799995c0.099998,0.700005 0.800003,1.300003 1.5,1.300003c0.099998,0 0.099998,0 0.200005,0c0.799995,-0.099998 1.399994,-0.900002 1.299995,-1.699997c-0.199997,-1.600006 -0.599998,-3 -0.900002,-4.200005c0,0 0,0 0,0c-1.5,-7.899998 0.200005,-15.099998 1.700005,-21.500002c1.5,-6.699997 2.900002,-12.399998 -0.5,-16.099998z"/>
</svg>
