<svg xmlns="http://www.w3.org/2000/svg" width="30" height="33" viewBox="0 0 30 33">
  <path d="M1248.41,4013.58a0.808,0.808,0,0,1,.16.01l13.9,2.55a4.2,4.2,0,0,1,3.45,4.14v14.81a3.1,3.1,0,0,0,.99,2.56,10.735,10.735,0,0,0,6.92,3.54,0.842,0.842,0,0,1,.56.57,0.824,0.824,0,0,1-.18.78h0a2.46,2.46,0,0,1-1.86.84h-0.1l-4.91-.2c-0.13,0-.26-0.01-0.4-0.01a9.859,9.859,0,0,0-1.53.12l-0.6.1a3.4,3.4,0,0,1-.45.03,2.957,2.957,0,0,1-2.4-1.23,3.232,3.232,0,0,1-.22-3.08c0.11-.28.32-1.13,0.32-1.13a9.325,9.325,0,0,0-.24-5.72l-0.54-1.38a18.294,18.294,0,0,1-1.16-8.96l-11.65.76h-0.06a0.836,0.836,0,0,1-.83-0.84v-7.42a0.828,0.828,0,0,1,.83-0.84m6.61,3.7a0.709,0.709,0,0,0,.11-1.41l-4.92-.78a0.487,0.487,0,0,0-.12-0.01,0.71,0.71,0,0,0-.11,1.41l4.93,0.78a0.375,0.375,0,0,0,.11.01m1.89,0.21a0.71,0.71,0,1,0-.71-0.71,0.713,0.713,0,0,0,.71.71m-8.5-5.49a2.417,2.417,0,0,0-2.41,2.42v7.42a2.42,2.42,0,0,0,.76,1.76,2.381,2.381,0,0,0,1.65.66,0.808,0.808,0,0,0,.16-0.01l9.85-.64a19.954,19.954,0,0,0,1.39,7.86l0.54,1.36a7.62,7.62,0,0,1,.19,4.72l-0.01.03v0.03c-0.1.38-.21,0.81-0.25,0.92a4.754,4.754,0,0,0,.4,4.58,4.544,4.544,0,0,0,3.68,1.89,5.337,5.337,0,0,0,.69-0.05l0.6-.1a9.34,9.34,0,0,1,1.29-.1c0.11,0,.23.01,0.34,0.01l4.9,0.2h0.17a4.066,4.066,0,0,0,3.04-1.37,2.41,2.41,0,0,0,.51-2.27,2.38,2.38,0,0,0-1.63-1.64,5.386,5.386,0,0,0-.75-0.16,8.522,8.522,0,0,1-5.41-2.89l-0.2-.23a1.564,1.564,0,0,1-.41-1.33v-14.79a5.789,5.789,0,0,0-4.74-5.69l-13.91-2.55a2.119,2.119,0,0,0-.44-0.04h0Z" transform="translate(-1246 -4012)"/>
</svg>
