<svg xmlns="http://www.w3.org/2000/svg" width="42.563" height="39.69" viewBox="0 0 42.563 39.69">
  <path d="M399.571,3921.38a9.886,9.886,0,0,0-2.422,2.37l-0.129.18a8.646,8.646,0,0,0-1.9,6.65,36.315,36.315,0,0,0,1.761,5.76,4.488,4.488,0,0,1-.347,2.06,0.519,0.519,0,0,0-.022.13,5.213,5.213,0,0,0,.4,2.34,1.937,1.937,0,0,0,.516,1.22,1.24,1.24,0,0,0,.769.36,1.53,1.53,0,0,0,1.144.35,1.637,1.637,0,0,0,.638.13,2.442,2.442,0,0,0,.441-0.05,2.37,2.37,0,0,0,1.111-.11,1.013,1.013,0,0,0,.8-0.2,1.279,1.279,0,0,0,.4-1.08,0.906,0.906,0,0,0,.17-0.15,2.086,2.086,0,0,0,.265-1.78,0.4,0.4,0,0,0-.063-0.17,8.6,8.6,0,0,0-2.145-2.43,11.641,11.641,0,0,1-.105-2.3,8.468,8.468,0,0,0,.021-4.74,9.582,9.582,0,0,0,2.59-1.32,17.383,17.383,0,0,0,1.34-1.3c0.324,1.16,1.374,2.79,4.043,4.91-0.088,1.15-.336,5.55.677,8.13a0.5,0.5,0,0,0,.935-0.37c-1.06-2.7-.593-7.89-0.588-7.94a0.519,0.519,0,0,0-.192-0.45c-4.349-3.39-4.089-5.15-3.9-5.6a0.494,0.494,0,0,0,.026-0.14,5.211,5.211,0,0,0,4.76,2.78c2.847,0,5.166-2.03,5.166-4.54v-2.09a0.5,0.5,0,0,0-1.007,0v2.09c0,1.95-1.866,3.53-4.159,3.53s-4.158-1.58-4.158-3.53a0.5,0.5,0,1,0-1.007,0,3.974,3.974,0,0,0,.261,1.35,0.515,0.515,0,0,0-.116-0.09,0.5,0.5,0,0,0-.655.17,10.283,10.283,0,0,1-2.091,2.34,10.881,10.881,0,0,1-2.777,1.3,0.5,0.5,0,0,0-.314.31,0.491,0.491,0,0,0,.038.43c0.755,1.28.436,3.21,0.131,4.55a13.138,13.138,0,0,0,.114,2.88,0.492,0.492,0,0,0,.255.38,6.882,6.882,0,0,1,1.947,2.13,4.536,4.536,0,0,1,.023.83,0.592,0.592,0,0,0-.385.16,0.524,0.524,0,0,0-.127.41c0.061,0.43-.01.59-0.031,0.54a0.471,0.471,0,0,0-.35.01,1.405,1.405,0,0,1-.75.1,0.511,0.511,0,0,0-.3-0.01,0.8,0.8,0,0,1-.549,0h0a0.509,0.509,0,0,0-.363-0.08,0.6,0.6,0,0,1-.514-0.1,0.469,0.469,0,0,0-.443-0.24,0.389,0.389,0,0,1-.274-0.08,1.081,1.081,0,0,1-.215-0.64,0.514,0.514,0,0,0-.071-0.26,3.987,3.987,0,0,1-.323-1.82,4.079,4.079,0,0,0,.258-2.78,37.021,37.021,0,0,1-1.663-5.48,7.644,7.644,0,0,1,1.742-5.88l0.131-.19a10.22,10.22,0,0,1,2.861-2.58c0.127,0.03.251,0.07,0.38,0.09h0.08a0.5,0.5,0,0,0,.5-0.42,0.512,0.512,0,0,0-.028-0.25,0.466,0.466,0,0,0,.1-0.21,4.579,4.579,0,0,1,4.642-3.79,8.925,8.925,0,0,0,1.449-.1c0.016,0,.028.01,0.045,0.01a0.379,0.379,0,0,0,.145-0.04,12.317,12.317,0,0,0,1.372-.29,0.4,0.4,0,0,0,.1.06,0.5,0.5,0,0,0,.623-0.27,21.621,21.621,0,0,0,3.068-1.23,0.511,0.511,0,0,0,.269-0.45,11.819,11.819,0,0,0-.415-3.48,0.466,0.466,0,0,0-.051-0.11,2.671,2.671,0,0,1-.652-1.87,0.8,0.8,0,0,1,.064-0.13h0a0.5,0.5,0,0,0,.352-0.55c-0.543-3.66,2.075-4.33,2.161-4.35a5.744,5.744,0,0,1,1.222-.09h0.112a5.66,5.66,0,0,1,1.195.09c0.116,0.02,2.739.66,2.191,4.35a0.478,0.478,0,0,0,.319.55,0.169,0.169,0,0,1,.089.13,2.66,2.66,0,0,1-.651,1.87,0.531,0.531,0,0,0-.049.11,11.79,11.79,0,0,0-.416,3.48,0.51,0.51,0,0,0,.268.45,16.405,16.405,0,0,0,6.8,1.86,4.593,4.593,0,0,1,4.643,3.79,0.48,0.48,0,0,0,.28.36,10.83,10.83,0,0,1,3.715,3,8.027,8.027,0,0,1,1.772,6.05,36.707,36.707,0,0,1-1.67,5.51,4.106,4.106,0,0,0,.257,2.79,3.987,3.987,0,0,1-.323,1.82,0.533,0.533,0,0,0-.07.26,1.069,1.069,0,0,1-.213.63,0.343,0.343,0,0,1-.275.09,0.483,0.483,0,0,0-.431.21,0.562,0.562,0,0,1-.533.12,0.542,0.542,0,0,0-.346.08,0.8,0.8,0,0,1-.56.01,0.466,0.466,0,0,0-.286,0,1.341,1.341,0,0,1-.765-0.1,0.565,0.565,0,0,0-.363.02,0.926,0.926,0,0,1-.02-0.56,0.486,0.486,0,0,0-.086-0.41,0.42,0.42,0,0,0-.356-0.15,1.189,1.189,0,0,1-.043-0.85,6.669,6.669,0,0,1,1.946-2.12,0.51,0.51,0,0,0,.256-0.38,13.15,13.15,0,0,0,.112-2.89c-0.305-1.34-.62-3.27.129-4.54a0.506,0.506,0,0,0,.04-0.44,0.513,0.513,0,0,0-.314-0.3,10.61,10.61,0,0,1-2.777-1.31,10.077,10.077,0,0,1-2.093-2.33,0.5,0.5,0,0,0-.656-0.17,0.249,0.249,0,0,0-.1.07,3.987,3.987,0,0,0,.255-1.34,0.5,0.5,0,0,0-1.008,0c0,1.95-1.866,3.54-4.157,3.54s-4.157-1.59-4.157-3.54V3922a0.5,0.5,0,1,0-1.007,0v2.08c0,2.51,2.316,4.55,5.164,4.55a5.234,5.234,0,0,0,4.751-2.76,0.477,0.477,0,0,0,.022.11c0.186,0.46.45,2.21-3.9,5.61a0.487,0.487,0,0,0-.193.44c0.006,0.06.474,5.24-.587,7.94a0.512,0.512,0,0,0,.283.66,0.5,0.5,0,0,0,.652-0.29c1.016-2.58.766-6.97,0.677-8.12,2.67-2.13,3.719-3.75,4.044-4.92a17.669,17.669,0,0,0,1.339,1.31,9.605,9.605,0,0,0,2.589,1.32,8.506,8.506,0,0,0,.022,4.74,11.51,11.51,0,0,1-.1,2.29,8.544,8.544,0,0,0-2.146,2.43,0.648,0.648,0,0,0-.062.17,2.1,2.1,0,0,0,.263,1.79,0.9,0.9,0,0,0,.169.15,1.308,1.308,0,0,0,.405,1.08,1.012,1.012,0,0,0,.8.2,2.336,2.336,0,0,0,1.112.1,1.763,1.763,0,0,0,1.076-.07,1.573,1.573,0,0,0,1.147-.35,1.3,1.3,0,0,0,.77-0.36,1.958,1.958,0,0,0,.515-1.22,5.288,5.288,0,0,0,.4-2.34,0.657,0.657,0,0,0-.023-0.13,3.772,3.772,0,0,1-.345-2.06,37.34,37.34,0,0,0,1.757-5.81,8.934,8.934,0,0,0-1.954-6.84,11.175,11.175,0,0,0-3.864-3.19,5.624,5.624,0,0,0-5.6-4.36h-0.173a15.385,15.385,0,0,1-5.857-1.61,11.17,11.17,0,0,1,.345-2.8c0.717-1.18.946-2.07,0.7-2.73a1.19,1.19,0,0,0-.309-0.47c0.478-4.33-2.965-5.16-3.022-5.18a7.177,7.177,0,0,0-1.429-.1,6.871,6.871,0,0,0-1.5.11c-0.035.01-3.474,0.84-3,5.16a1.355,1.355,0,0,0-.309.47c-0.248.67-.022,1.56,0.695,2.74a11.239,11.239,0,0,1,.345,2.8,21.336,21.336,0,0,1-1.99.83m-9.508,4.66c-0.05.16-.1,0.32-0.138,0.49-0.073.04-.169,0.09-0.273,0.15m8.784-4.94c-0.189.06-.381,0.1-0.576,0.15m-1.19.21a6.24,6.24,0,0,1-1.136.06,5.731,5.731,0,0,0-5.078,2.94m20.907,7.57a0.73,0.73,0,1,1,.713-0.73A0.721,0.721,0,0,1,422.364,3926.66Zm-12.1-1.46a0.73,0.73,0,1,1-.71.73A0.715,0.715,0,0,1,410.259,3925.2Zm-5.966-3.21a0.507,0.507,0,0,1,.085,1.01,4.381,4.381,0,0,0-4.319,3.79,0.5,0.5,0,0,1-.5.45h-0.051a0.5,0.5,0,0,1-.452-0.55A5.467,5.467,0,0,1,404.293,3921.99Zm24.536,0.53a0.508,0.508,0,0,1,.108-1.01,5.471,5.471,0,0,1,4.627,5.3,0.5,0.5,0,0,1-.466.54,0.056,0.056,0,0,1-.038.01,0.509,0.509,0,0,1-.5-0.47A4.391,4.391,0,0,0,428.829,3922.52Z" transform="translate(-395.031 -3903.25)"/>
</svg>
