<svg xmlns="http://www.w3.org/2000/svg" width="44.031" height="44" viewBox="0 0 44.031 44">
  <path d="M823.209,2682.54c-0.187.42-.393,0.91-0.565,1.32-1.1,2.62-2.246,5.33-6.583,10.22a0.394,0.394,0,0,0,.033.55,0.4,0.4,0,0,0,.255.09,0.368,0.368,0,0,0,.287-0.13c1.185-1.33,2.134-2.51,2.914-3.57a5.372,5.372,0,0,1,3.369,3.42c-1.052.77-2.22,1.72-3.544,2.89a0.381,0.381,0,0,0-.033.54,0.369,0.369,0,0,0,.288.13,0.361,0.361,0,0,0,.254-0.1c4.9-4.33,7.611-5.47,10.236-6.57,0.41-.18.895-0.38,1.319-0.57,4.459-1.97,8.732-3.85,12.405-6.86,4.078-3.34,7.083-7.75,9.455-13.88,1.946-5.03,3.457-8.62,6.614-12.48a0.385,0.385,0,0,0-.6-0.49,31.639,31.639,0,0,0-2.422,3.39,5.383,5.383,0,0,1-3.322-3.35,31.688,31.688,0,0,0,3.371-2.41,0.382,0.382,0,1,0-.486-0.59c-3.868,3.15-7.456,4.66-12.489,6.61-6.139,2.37-10.554,5.37-13.9,9.44C827.064,2673.81,825.177,2678.08,823.209,2682.54Zm0.7,0.31c4.027-9.12,7.235-16.38,20.335-21.44a58.718,58.718,0,0,0,8.655-3.91,6.268,6.268,0,0,0,.671,1.3,62.979,62.979,0,0,1-7.97,3.53,0.383,0.383,0,0,0,.139.74,0.344,0.344,0,0,0,.138-0.03,63.021,63.021,0,0,0,8.165-3.63,5.945,5.945,0,0,0,1.126,1.01l-3.049,4.27a0.376,0.376,0,0,0,.089.53,0.388,0.388,0,0,0,.536-0.09l3.086-4.31c0.206,0.1.424,0.2,0.658,0.29a57.77,57.77,0,0,0-3.908,8.63c-5.063,13.09-12.331,16.29-21.454,20.32-0.418.18-.9,0.39-1.307,0.56a29.457,29.457,0,0,0-6.252,3.35,6.389,6.389,0,0,0-1.215-2,29.846,29.846,0,0,0,3.282-5.18c0.252-.48.513-0.98,0.809-1.51,4.894-8.68,9.227-15.2,20.476-20.15a0.388,0.388,0,0,0,.2-0.51,0.381,0.381,0,0,0-.506-0.19,37.638,37.638,0,0,0-13.069,9.04,59.165,59.165,0,0,0-7.768,11.43c-0.3.54-.566,1.05-0.821,1.54a28.5,28.5,0,0,1-3.154,4.99,6.067,6.067,0,0,0-1.785-1.06,29.288,29.288,0,0,0,3.336-6.22C823.523,2683.75,823.728,2683.27,823.912,2682.85Zm19.046-19.41a29.653,29.653,0,0,0-12.242,9.62,0.376,0.376,0,0,0,.31.6,0.384,0.384,0,0,0,.311-0.15,28.948,28.948,0,0,1,11.941-9.37,0.387,0.387,0,0,0,.19-0.51A0.378,0.378,0,0,0,842.958,2663.44Zm2.118,13.96a0.381,0.381,0,0,0-.537.08,28.951,28.951,0,0,1-11.94,9.37,0.385,0.385,0,0,0-.19.51,0.39,0.39,0,0,0,.349.23,0.46,0.46,0,0,0,.16-0.04,29.646,29.646,0,0,0,12.242-9.62A0.375,0.375,0,0,0,845.076,2677.4Z" transform="translate(-815.969 -2654)"/>
</svg>
