<svg xmlns="http://www.w3.org/2000/svg" width="37.938" height="41" viewBox="0 0 37.938 41">
  <path d="M430.375,4015.17l-5.395-1.03a3.937,3.937,0,0,1-3.2-3.87v-2.23a1.043,1.043,0,0,0-1.041-1.04h-8.478a1.043,1.043,0,0,0-1.041,1.04v2.23a3.938,3.938,0,0,1-3.2,3.87l-5.395,1.03a5.7,5.7,0,0,0-4.609,6.03l1.889,24.84a1.04,1.04,0,0,0,1.037.96h4.493l0.9-5.82-3.509-15.37a1.213,1.213,0,0,1,2.366-.54l3.612,15.82-0.908,5.91h17.217l-0.909-5.91,3.612-15.82a1.213,1.213,0,0,1,2.366.54l-3.508,15.37,0.895,5.82h4.492a1.042,1.042,0,0,0,1.039-.96l1.888-24.84A5.7,5.7,0,0,0,430.375,4015.17Z" transform="translate(-397.531 -4006.5)"/>
  <path d="M421.448,4040.48h-1.33v-1.36a0.128,0.128,0,0,0-.067-0.11,0.167,0.167,0,0,0-.138-0.01,11.254,11.254,0,0,1-6.826,0,0.167,0.167,0,0,0-.138.01,0.128,0.128,0,0,0-.067.11v1.36h-1.33a0.533,0.533,0,0,0-.552.51v0.68a0.527,0.527,0,0,0,.552.51h1.33v0.92a0.464,0.464,0,0,0,.28.41,9.983,9.983,0,0,0,3.338.49,9.862,9.862,0,0,0,3.338-.49,0.464,0.464,0,0,0,.28-0.41v-0.92h1.33a0.527,0.527,0,0,0,.552-0.51v-0.68A0.533,0.533,0,0,0,421.448,4040.48Zm-7.02,2.07a0.411,0.411,0,0,1-.819,0v-1.86a0.411,0.411,0,0,1,.819,0v1.86Z" transform="translate(-397.531 -4006.5)"/>
  <path d="M421.448,4034.48h-1.33v-1.36a0.128,0.128,0,0,0-.067-0.11,0.136,0.136,0,0,0-.138,0,11.461,11.461,0,0,1-6.826,0,0.136,0.136,0,0,0-.138,0,0.128,0.128,0,0,0-.067.11v1.36h-1.33a0.533,0.533,0,0,0-.552.51v0.68a0.527,0.527,0,0,0,.552.51h1.33v0.92a0.464,0.464,0,0,0,.28.41,9.983,9.983,0,0,0,3.338.49,9.862,9.862,0,0,0,3.338-.49,0.464,0.464,0,0,0,.28-0.41v-0.92h1.33a0.527,0.527,0,0,0,.552-0.51v-0.68A0.533,0.533,0,0,0,421.448,4034.48Zm-7.02,2.07a0.411,0.411,0,0,1-.819,0v-1.86a0.411,0.411,0,0,1,.819,0v1.86Z" transform="translate(-397.531 -4006.5)"/>
</svg>
