<svg xmlns="http://www.w3.org/2000/svg" width="38" height="39" viewBox="0 0 38 39">
  <path d="M839.8,3909.05h1.2v1.22h-1.2v-1.22Zm-13.01,27.86,0.848-.87,1.2,1.22-0.848.86Zm24.222-7.57-1.8-1.83a0.563,0.563,0,0,0-.436-0.17,0.586,0.586,0,0,0-.429.19l-0.064.17-0.518-.62v-1.57a0.606,0.606,0,0,0-.176-0.43l-3.42-3.48v-4.02a0.623,0.623,0,0,0-.176-0.43l-1.023-1.04v-0.96a1.057,1.057,0,0,0,.6-0.61V3904h-1.2v7.31h-8.391V3904h-1.2v10.54c0,0.33,0,.61.6,0.61v0.96l-2.222,2.26a0.627,0.627,0,0,0-.175.43v1.58l-2.821,2.87a0.606,0.606,0,0,0-.176.43v3.4l-0.687.61-0.219-.18a0.635,0.635,0,0,0-.87,0l-1.809,1.83-5.4,5.49,0.844,0.86,4.969-5.06,6.344,6.45-4.971,5.06,0.847,0.86,5.394-5.48,1.8-1.83a0.613,0.613,0,0,0,0-.86l-0.175-.18,0.631-.64c0.1,0.01.21,0.03,0.319,0.03a1.67,1.67,0,0,0,.669-0.14,1.8,1.8,0,0,0,1.729,1.36,1.883,1.883,0,0,0,1.515-.95,1.72,1.72,0,0,0,.882.16h0.951l0.592,0.69-0.185.25a0.636,0.636,0,0,0,.017.86l1.8,1.84,4.8,4.88,0.847-.85-4.387-4.46,2.126-2.35,4.252-4.68,5.552,5.65,0.847-.86Zm-8.639-16.81v1.22h-8.391v-1.22h8.391ZM832,3936.22l-6.345-6.45,0.951-.96,0.175,0.17,5.994,6.1,0.175,0.18Zm-3.948-7.67,0.863-.78a0.745,0.745,0,0,0,.264-0.43v-3.41l1.8-1.83v0.97a0.609,0.609,0,0,0,.175.43l2.222,2.26v6.45a1.747,1.747,0,0,0,.327,1.15l-0.459.43Zm11.315,4.27v-9.32h-1.2v9.93a0.6,0.6,0,1,1-1.2,0v-9.93h-1.2v8.71a0.6,0.6,0,1,1-1.2,0v-9.93h-1.2v1.76l-1.2-1.22v-3.76l2.222-2.26a0.623,0.623,0,0,0,.176-0.43v-1.4h7.192v1.4a0.627,0.627,0,0,0,.175.43l1.023,1.04v11.93a0.6,0.6,0,1,1-1.2,0v-6.27h-1.2v9.32A0.6,0.6,0,1,1,839.371,3932.82Zm2.046,0.79a0.236,0.236,0,0,0,.083-0.01,1.866,1.866,0,0,0,.269-0.78v-1.33a1.112,1.112,0,0,0,.6.11,1.816,1.816,0,0,0,1.8-1.83v-6.45l2.4,2.44v1.58a0.567,0.567,0,0,0,.088.43l0.75,0.8-2.64,2.93-2.6,2.85Zm1.074,2.17a1.8,1.8,0,0,0,.144-0.11l3-3.36,3.166-3.49,0.949,0.97-2.126,2.34-4.252,4.68-0.949-.96Zm7.068-1.56,1.2-1.22,0.848,0.86-1.2,1.22Z" transform="translate(-819 -3904)"/>
</svg>
