<svg xmlns="http://www.w3.org/2000/svg" width="37" height="43" viewBox="0 0 37 43">
  <path d="M838.486,3840a13.9,13.9,0,0,1-13.9-13.86v-0.2h-0.3a4.285,4.285,0,0,1-4.286-4.27v-1.96a4.279,4.279,0,0,1,4.286-4.27h0.3v-6.3a7.941,7.941,0,0,1,3.014-6.21,4.943,4.943,0,0,1-.1-1.01,3.178,3.178,0,0,1,1.256-2.41,0.041,0.041,0,0,1,.025-0.02l0.477-.34a0.126,0.126,0,0,1,.052-0.03,2.635,2.635,0,0,1,.256-0.15,9.165,9.165,0,0,1,2.25-1.02,19.184,19.184,0,0,1,4.987-.9c6.9-.39,13.041,1.62,14.932,4.88a8.347,8.347,0,0,1,.626,1.1,10,10,0,0,1,.022,7.51v4.9h0.331a4.28,4.28,0,0,1,4.286,4.27v1.96a4.285,4.285,0,0,1-4.286,4.27h-0.331v0.2A13.9,13.9,0,0,1,838.486,3840Zm-12.875-14.57v0.71a12.875,12.875,0,0,0,25.75,0v-4.32h-0.9a0.5,0.5,0,0,1-.363-0.15,0.485,0.485,0,0,1-.148-0.36c0-.06.063-5.93-0.393-7.74a3.682,3.682,0,0,0-1.636-2.32,0.522,0.522,0,0,1-.249-0.32,0.5,0.5,0,0,1,.052-0.39,5.743,5.743,0,0,0,.732-2.34,2.981,2.981,0,0,0-1.7-.88,8.522,8.522,0,0,0-1.978-.22H834.141a9.081,9.081,0,0,1-3.945-.79,3.605,3.605,0,0,1-.522-0.29,4.216,4.216,0,0,0-1.153,2.2,5.191,5.191,0,0,0,.726,2.31,0.5,0.5,0,0,1,.058.4,0.514,0.514,0,0,1-.253.32,3.7,3.7,0,0,0-1.633,2.32c-0.455,1.81-.394,7.68-0.393,7.74a0.485,0.485,0,0,1-.148.36,0.5,0.5,0,0,1-.363.15h-0.9v3.61h0Zm26.8-.51h0.3a3.263,3.263,0,0,0,3.265-3.25v-1.96a3.265,3.265,0,0,0-3.265-3.26h-0.3v8.47Zm-28.126-8.47a3.264,3.264,0,0,0-3.264,3.26v1.96a3.263,3.263,0,0,0,3.264,3.25h0.3v-8.47h-0.3Zm26.686,4.36h0.39v-10.24a5.116,5.116,0,0,0-1.9-2.17,6.435,6.435,0,0,1-.643,2.23,4.888,4.888,0,0,1,1.722,2.69A46.335,46.335,0,0,1,850.971,3820.81Zm-25.36,0H826a46.446,46.446,0,0,1,.427-7.49,4.886,4.886,0,0,1,1.717-2.68,5.857,5.857,0,0,1-.645-2.42,5.055,5.055,0,0,1,1.384-2.85,4.783,4.783,0,0,1-.949-1.39,6.909,6.909,0,0,0-2.324,5.16v11.67Zm19.245-14.75c0.692,0,4.813.13,6.892,3.12,0.073-.28.145-0.59,0.2-0.95a12.222,12.222,0,0,0-5.985-3.1,32.033,32.033,0,0,0-7.483-.1,43.033,43.033,0,0,1-5.642.11,8.186,8.186,0,0,1-3.681-1.06,3.679,3.679,0,0,0,1.5,1.31,8.037,8.037,0,0,0,3.477.67h10.716Zm-2.308-2.22a20.073,20.073,0,0,1,3.611.29,13.106,13.106,0,0,1,5.927,2.85,8.438,8.438,0,0,0-.055-1.41c-1.424-1.42-3.949-2.42-7.318-2.87a23,23,0,0,0-5.973.32,25.2,25.2,0,0,1-6.435.34c-2.24-.3-3.266-1.1-3.734-1.82a1.611,1.611,0,0,0-.049.38c0,0.05,0,.1,0,0.15,0.166,0.32,1.11,1.81,4.4,2.06a43.048,43.048,0,0,0,5.5-.11C839.793,3803.93,841.189,3803.84,842.548,3803.84Zm0.687-2.25a12.128,12.128,0,0,1,1.615.1,15.945,15.945,0,0,1,6.785,2.25q-0.088-.24-0.2-0.48a7.983,7.983,0,0,0-.56-0.99,0.067,0.067,0,0,1-.018-0.03h0c-1.676-2.9-7.558-4.74-13.994-4.38a18.533,18.533,0,0,0-4.734.86,0.017,0.017,0,0,0-.018.01,8.33,8.33,0,0,0-2.017.91c-0.1.06-.186,0.11-0.265,0.15l-0.439.32c-0.06.05-.117,0.1-0.172,0.15,0.065,0.4.491,1.53,3.223,1.89a24.642,24.642,0,0,0,6.164-.34A35.426,35.426,0,0,1,843.235,3801.59Zm2.54,31.78H831.429a0.511,0.511,0,0,1-.51-0.51c0-4.27,3.983-6.21,7.683-6.21s7.683,1.94,7.683,6.21A0.511,0.511,0,0,1,845.775,3833.37Zm-13.811-1.02h13.275a4.38,4.38,0,0,0-.461-1.6H832.422A4.474,4.474,0,0,0,831.964,3832.35Zm1.167-2.62h10.936a4.853,4.853,0,0,0-.829-0.73,8.073,8.073,0,0,0-4.636-1.33A7.518,7.518,0,0,0,833.131,3829.73Zm-1.781-7.69a0.517,0.517,0,0,1-.468-0.31,0.507,0.507,0,0,1,.263-0.67l3.459-1.51-3.459-1.51a0.508,0.508,0,1,1,.41-0.93l4.528,1.97a0.514,0.514,0,0,1,0,.94l-4.528,1.97A0.506,0.506,0,0,1,831.35,3822.04Zm14.5,0a0.506,0.506,0,0,1-.205-0.05l-4.528-1.97a0.514,0.514,0,0,1,0-.94l4.528-1.97a0.508,0.508,0,1,1,.41.93l-3.459,1.51,3.459,1.51a0.507,0.507,0,0,1,.263.67A0.518,0.518,0,0,1,845.854,3822.04Zm-3.7-7.34a0.532,0.532,0,0,1-.4-0.19,0.513,0.513,0,0,1,.087-0.72l1.115-.87a2.206,2.206,0,0,1,1.9-.4l1.311,0.33a0.511,0.511,0,0,1-.253.99l-1.31-.33a1.2,1.2,0,0,0-1.022.21l-1.115.87A0.472,0.472,0,0,1,842.152,3814.7Zm-1.637-1.73a0.507,0.507,0,0,1-.186-0.98l0.648-.26a1.149,1.149,0,0,0,.654-0.62,1.19,1.19,0,0,0,.018-0.91l-0.32-.81a0.509,0.509,0,0,1,.29-0.66,0.515,0.515,0,0,1,.661.29l0.32,0.81a2.191,2.191,0,0,1-.034,1.69,2.162,2.162,0,0,1-1.218,1.16l-0.648.25A0.413,0.413,0,0,1,840.515,3812.97Zm6.15-1.42h-0.83a2.212,2.212,0,0,1-2.2-2.03l-0.052-.66a0.511,0.511,0,0,1,1.018-.08l0.052,0.66a1.189,1.189,0,0,0,1.178,1.09h0.83A0.51,0.51,0,1,1,846.665,3811.55Z" transform="translate(-820 -3797)"/>
</svg>
