<svg xmlns="http://www.w3.org/2000/svg" width="35" height="37" viewBox="0 0 35 37">
  <path d="M1250.65,3695.31c3.76,0.6,4.87,5.02,4.62,7.27-0.22,2.09-.04,2.25.09,2.36a0.746,0.746,0,0,0,.12.07,4.3,4.3,0,0,0,3.76.19c1.52-.82,1.92-2.91,2.15-4.17,0.03-.16.06-0.32,0.09-0.45,0.33-1.58,1.31-6.15,1.32-6.2a0.3,0.3,0,0,0-.24-0.37,0.314,0.314,0,0,0-.37.24c0,0.04-.99,4.61-1.32,6.2-0.03.14-.06,0.3-0.09,0.47-0.23,1.21-.57,3.05-1.83,3.73a3.694,3.694,0,0,1-3.15-.19,9.191,9.191,0,0,1,.09-1.82c0.27-2.45-.97-7.3-5.16-7.95-0.01,0-.02-0.01-0.03-0.01a2.582,2.582,0,0,0-2.1,1.08,0.331,0.331,0,0,0,0,.38,11.43,11.43,0,0,1,1.48,2.82,9.785,9.785,0,0,1,.19,6.53c-0.05.13-.74,2.15,0.39,5.66a13.453,13.453,0,0,1-.26,8.75c-0.79,1.82-6.29,10.52-6.35,10.61a0.317,0.317,0,0,0,.09.43,0.279,0.279,0,0,0,.17.05,0.314,0.314,0,0,0,.26-0.14c0.11-.16,1.25-1.96,2.54-4.07l2.88,1.77a0.337,0.337,0,0,0,.17.05,0.325,0.325,0,0,0,.26-0.15,0.33,0.33,0,0,0-.1-0.44l-2.88-1.76c1.5-2.45,3.11-5.14,3.53-6.1a14.165,14.165,0,0,0,.28-9.19,8.984,8.984,0,0,1-.4-5.26l0.01-.01a10.4,10.4,0,0,0-.2-6.96,12.637,12.637,0,0,0-1.42-2.77A1.927,1.927,0,0,1,1250.65,3695.31Zm4.95,9.08h0Zm-0.06,0a0.433,0.433,0,0,1-.05.01A0.433,0.433,0,0,0,1255.54,3704.39Zm9.34-3a1.091,1.091,0,0,0,.49.11,1.043,1.043,0,0,0,.88-0.46l0.28-.41c0.93-1.37,2.19-3.24,3.65-5.56a0.312,0.312,0,0,0-.53-0.33c-1.45,2.31-2.71,4.17-3.63,5.54l-0.28.41a0.462,0.462,0,0,1-.58.14,0.483,0.483,0,0,1-.25-0.52l1.35-5.93a0.307,0.307,0,0,0-.23-0.37,0.3,0.3,0,0,0-.37.23l-1.36,5.94v0.01A1.1,1.1,0,0,0,1264.88,3701.39Zm3.73,1.31a1.136,1.136,0,0,0,.3,1.34,1.279,1.279,0,0,0,.79.31,1.007,1.007,0,0,0,.72-0.32,0.02,0.02,0,0,0,.01-0.02l6.37-7.35a0.306,0.306,0,0,0-.03-0.44,0.315,0.315,0,0,0-.44.03l-6.36,7.34a0.478,0.478,0,0,1-.67-0.04,0.511,0.511,0,0,1-.14-0.57l4.75-7.46a0.323,0.323,0,0,0-.1-0.44,0.313,0.313,0,0,0-.43.1l-4.75,7.49A0.053,0.053,0,0,0,1268.61,3702.7Zm3.59,5.02a1.259,1.259,0,0,0,1,.5,0.987,0.987,0,0,0,.6-0.18h0.01s2.67-2.07,5.07-3.92a0.328,0.328,0,0,0,.05-0.45,0.3,0.3,0,0,0-.43-0.05c-2.33,1.8-4.92,3.8-5.06,3.91a0.6,0.6,0,0,1-.75-0.19,0.645,0.645,0,0,1,.01-0.77c1.27-1.6,3.39-4.11,5.49-6.58a0.327,0.327,0,0,0-.03-0.45,0.315,0.315,0,0,0-.44.04c-2.1,2.48-4.22,4.99-5.5,6.6A1.275,1.275,0,0,0,1272.2,3707.72Zm-10.38,19.35c0.86-2.27,1.1-2.65,4.05-4.71,2.99-2.1,7.75-9.14,8.17-9.76l4.85-4.3a0.316,0.316,0,0,0-.41-0.48l-3.09,2.74-1.33-1.35a0.314,0.314,0,0,0-.44,0,0.326,0.326,0,0,0,0,.45l1.3,1.32-1.32,1.17-0.06.06c-0.05.08-5.05,7.55-8.02,9.63-2.72,1.9-3.23,2.55-3.95,4.22l-3.71-2.16a0.316,0.316,0,0,0-.31.55l3.78,2.19c-0.03.06-.05,0.12-0.08,0.19l-0.03.07c-0.11.26-.23,0.57-0.36,0.92l-6.85-3.79a0.3,0.3,0,0,0-.42.12,0.321,0.321,0,0,0,.12.43l6.93,3.84c-0.8,2.24-.77,2.28-0.66,2.44a0.314,0.314,0,0,0,.26.14h0a0.314,0.314,0,0,0,.26-0.14,0.3,0.3,0,0,0,.04-0.08S1261.47,3727.98,1261.82,3727.07Zm9.05-14.11a0.328,0.328,0,0,0,.3-0.24,0.313,0.313,0,0,0-.23-0.38c-4.97-1.29-10.91-7.03-10.97-7.09a0.305,0.305,0,0,0-.44.01,0.314,0.314,0,0,0,.01.44c0.25,0.24,6.11,5.91,11.25,7.25C1270.81,3712.95,1270.84,3712.96,1270.87,3712.96Zm-15.61,7.04a0.407,0.407,0,0,0,.18.05,0.3,0.3,0,0,0,.26-0.13,11.776,11.776,0,0,0,1.87-9.45,12.673,12.673,0,0,0-1.73-4.22,0.306,0.306,0,0,0-.43-0.07,0.318,0.318,0,0,0-.08.44,12.2,12.2,0,0,1,1.64,3.99,11.092,11.092,0,0,1-1.78,8.95A0.318,0.318,0,0,0,1255.26,3720Zm12.7-6.63c-0.26.04-6.44,1.17-9.26,4.92a0.325,0.325,0,0,0,.06.44,0.281,0.281,0,0,0,.19.07,0.328,0.328,0,0,0,.25-0.13c2.67-3.55,8.81-4.67,8.87-4.68a0.313,0.313,0,0,0,.25-0.37A0.308,0.308,0,0,0,1267.96,3713.37Zm-0.25-4.81a0.471,0.471,0,0,0,.16.04,0.315,0.315,0,0,0,.27-0.16,0.324,0.324,0,0,0-.12-0.43c-5.22-3.03-6.07-4.49-6.09-4.53a0.311,0.311,0,0,0-.55.29C1261.41,3703.83,1262.21,3705.37,1267.71,3708.56Zm-6.18-7.85a0.317,0.317,0,0,0,.06.44l2.3,1.77a0.3,0.3,0,0,0,.44-0.06,0.318,0.318,0,0,0-.06-0.44l-2.3-1.77A0.308,0.308,0,0,0,1261.53,3700.71Z" transform="translate(-1244 -3694)"/>
</svg>
