<svg xmlns="http://www.w3.org/2000/svg" width="32" height="35" viewBox="0 0 32 35">
  <path d="M853.5,4340.35a64.9,64.9,0,0,0-2.683-12.3c-0.028-.26-0.123-1.07-0.328-2.03a8.956,8.956,0,0,0-1.377-3.52,1.64,1.64,0,0,0-.687-0.45,10.522,10.522,0,0,0-1.109-.44,10.779,10.779,0,0,0-3.416-.61,6.767,6.767,0,0,0-2.712.53c-1.63.71-2.807,2.71-2.42,4.11a1.769,1.769,0,0,0,.807,1.1c0,0.02,0,.05,0,0.07a1.5,1.5,0,0,0,.833,1.42,2.007,2.007,0,0,0,.83.17,2.637,2.637,0,0,0,.5-0.05,2.045,2.045,0,0,0,1.369,1.22,2.126,2.126,0,0,0,.367.04,3.035,3.035,0,0,0,1.048-.23c-0.253,5.68-.205,8.92-0.113,10.68a11.29,11.29,0,0,0-2.412-1.32,12.546,12.546,0,0,0-4.578-.88,16.107,16.107,0,0,0-5.669,1.07,9.952,9.952,0,0,0-1.853-2.06,10.713,10.713,0,0,0-7.2-2.5,0.721,0.721,0,0,0-.7.73h0v20.17h0a0.752,0.752,0,0,0,.17.48,0.717,0.717,0,0,0,.535.25,0.69,0.69,0,0,0,.461-0.18l6.149-5.46a15.674,15.674,0,0,0,6.789,2.82,19.455,19.455,0,0,0,3.081.24,21.147,21.147,0,0,0,4.518-.49,20.356,20.356,0,0,0,6.28-2.47,10.571,10.571,0,0,0,3.93-3.86,0.778,0.778,0,0,0,.085-0.37C854,4346.13,853.929,4343.78,853.5,4340.35Zm-3.324-9.58a10.9,10.9,0,0,1-1.232.36,5.576,5.576,0,0,1-3.077-.07c0.018-.45.036-0.93,0.058-1.42a3.519,3.519,0,0,0,1.345.25c0.064,0,.13-0.01.195-0.01a5.532,5.532,0,0,0,2.278-.55Q849.973,4330.05,850.178,4330.77Zm-6.7-2.62c-0.033,0-.047,0-0.049-0.01a0.979,0.979,0,0,1-.511-0.77,0.719,0.719,0,0,0-.342-0.54,0.675,0.675,0,0,0-.632-0.04,2.126,2.126,0,0,1-.7.15,0.557,0.557,0,0,1-.237-0.04,1.112,1.112,0,0,1,.025-0.46,0.749,0.749,0,0,0-.116-0.64,0.7,0.7,0,0,0-.542-0.29,0.3,0.3,0,0,1-.242-0.27,2.651,2.651,0,0,1,1.609-2.37,5.481,5.481,0,0,1,2.163-.41,9.926,9.926,0,0,1,4.174,1.04,11.677,11.677,0,0,1,1.3,4.38,4.032,4.032,0,0,1-1.966.54,0.66,0.66,0,0,1-.139.01,1.514,1.514,0,0,1-1.367-.54,0.677,0.677,0,0,0-.415-0.39,0.668,0.668,0,0,0-.579.09A3.857,3.857,0,0,1,843.476,4328.15Zm-0.064,23.35a18.676,18.676,0,0,1-7.083.23,14.11,14.11,0,0,1-5.908-2.35l1.229-1.09a0.748,0.748,0,0,0,.075-1.03,0.689,0.689,0,0,0-1-.08l-1.9,1.69h0l-5.411,4.81v-17.83a9.072,9.072,0,0,1,5.541,2.11,8.156,8.156,0,0,1,1.883,2.2,0.709,0.709,0,0,0,.881.34,15.066,15.066,0,0,1,5.643-1.18,11.006,11.006,0,0,1,4.057.76,9.34,9.34,0,0,1,3.329,2.15,0.691,0.691,0,0,0,.528.24,0.7,0.7,0,0,0,.317-0.07,0.738,0.738,0,0,0,.372-0.8c0-.03-0.357-1.98-0.146-9.03a5.832,5.832,0,0,0,1.548.2,9.967,9.967,0,0,0,3.189-.59,73.855,73.855,0,0,1,2.025,13.89C851.239,4348.43,847.592,4350.59,843.412,4351.5Z" transform="translate(-822 -4321)"/>
</svg>
