<svg xmlns="http://www.w3.org/2000/svg" width="20.03" height="44" viewBox="0 0 20.03 44">
  <path d="M1253.68,2664.34c-0.67.14-1.37-.57-1.57-1.58s0.2-1.94.87-2.07,1.37,0.58,1.57,1.59A1.654,1.654,0,0,1,1253.68,2664.34Zm-1.37.55a1.091,1.091,0,1,0-2.01-.05,1.357,1.357,0,0,0,.97,1.54A1.336,1.336,0,0,0,1252.31,2664.89Zm5.5-4.14c0-1.29-.68-2.34-1.52-2.34s-1.52,1.05-1.52,2.35,0.68,2.34,1.52,2.34S1257.81,2662.05,1257.81,2660.75Zm-7.8,13.32c-0.24,7.66,4.75,10.01,4.75,17.85,0,2.88,1.85,6.08,5.07,6.08,4.71,0,5.85-2.67,5.95-5.68,0.18-5.62-4.95-6.26-4.95-11.21,0-6.19,6.57-6.15,6.57-11.77,0-3.88-3.26-4.33-4.99-4.33C1259.17,2665.01,1250.26,2666.42,1250.01,2674.07Zm18.93-14.63c0.33-2.21-.56-4.19-1.99-4.42s-2.85,1.36-3.18,3.57,0.56,4.19,1.99,4.42S1268.6,2661.65,1268.94,2659.44Zm-6.42.36c0.14-1.56-.57-2.91-1.61-3.01s-1.99,1.07-2.14,2.63,0.57,2.91,1.61,3.01S1262.37,2661.36,1262.52,2659.8Z" transform="translate(-1249.5 -2654.5)"/>
</svg>
