<svg xmlns="http://www.w3.org/2000/svg" width="41" height="40" viewBox="0 0 41 40">
  <path class="cls-1" d="M432.537,2775.42c-0.386-8.01-7.431-14.42-16.037-14.42s-15.651,6.41-16.037,14.42a5.2,5.2,0,0,0,.724,10.35,5.405,5.405,0,0,0,1.6-.25,14.616,14.616,0,0,0,6.065,7.49c0.077,0.05.155,0.09,0.233,0.14a12.486,12.486,0,0,0-1.936,1.75,0.127,0.127,0,0,0-.034.04c-0.052.05-.1,0.11-0.153,0.17l-0.05.06s-0.005.01-.008,0.01a12.725,12.725,0,0,0-2.565,4.88,0.738,0.738,0,0,0,.523.91,0.652,0.652,0,0,0,.193.03,0.743,0.743,0,0,0,.715-0.55,11.246,11.246,0,0,1,1.886-3.84,18.231,18.231,0,0,0,17.692,0,11.246,11.246,0,0,1,1.886,3.84,0.743,0.743,0,0,0,.715.55,0.647,0.647,0,0,0,.193-0.03,0.738,0.738,0,0,0,.523-0.91,12.739,12.739,0,0,0-2.565-4.88c0-.01,0-0.01-0.008-0.01a0.227,0.227,0,0,0-.046-0.05c-0.052-.06-0.1-0.13-0.157-0.18a0.129,0.129,0,0,0-.035-0.04,12.479,12.479,0,0,0-1.935-1.75,14.577,14.577,0,0,0,6.3-7.63,5.405,5.405,0,0,0,1.6.25A5.2,5.2,0,0,0,432.537,2775.42Zm-0.724,8.86a3.624,3.624,0,0,1-1.183-.19,15.5,15.5,0,0,0,.442-3.52,0.741,0.741,0,0,1,1.482,0,0.741,0.741,0,0,0,1.482,0,2.223,2.223,0,1,0-4.446,0,14.778,14.778,0,0,1-.543,3.75,13.2,13.2,0,0,1-10.209,9.17,0.741,0.741,0,0,0,.131,1.47,0.588,0.588,0,0,0,.132-0.01,14.2,14.2,0,0,0,3.322-1.03,11.311,11.311,0,0,1,1.925,1.55,16.844,16.844,0,0,1-15.7,0,11.311,11.311,0,0,1,1.925-1.55,14.2,14.2,0,0,0,3.322,1.03,0.588,0.588,0,0,0,.132.01,0.741,0.741,0,0,0,.131-1.47,12.833,12.833,0,0,1-4.533-1.75,13.1,13.1,0,0,1-5.675-7.42,14.738,14.738,0,0,1-.544-3.75,2.223,2.223,0,1,0-4.446,0,0.741,0.741,0,0,0,1.482,0,0.741,0.741,0,0,1,1.482,0,15.5,15.5,0,0,0,.442,3.52,3.624,3.624,0,0,1-1.183.19,3.715,3.715,0,0,1,0-7.43c0.073,0,.146.01,0.219,0.01a3.654,3.654,0,0,1,1.26.3,1.738,1.738,0,0,1,.2.1h0l0.7,0.35a0.028,0.028,0,0,0,.025.01c0.039,0.03.073,0.05,0.1,0.07a0.467,0.467,0,0,1,.209.4v0.47a0.762,0.762,0,0,0,.718.77,0.746,0.746,0,0,0,.763-0.74v-0.99a1.122,1.122,0,0,0-.558-0.97l-0.5-.29c-0.029-.02-0.058-0.03-0.09-0.05l-0.7-.36-0.246-.12a0.176,0.176,0,0,0-.068-0.02,0.986,0.986,0,0,0-.218-0.09c-0.012-.01-0.024-0.01-0.036-0.02a2.388,2.388,0,0,0-.253-0.08,0.172,0.172,0,0,0-.067-0.02l-0.213-.06a0.108,0.108,0,0,0-.055-0.01l-0.259-.06c-0.022,0-.043-0.01-0.064-0.01-0.037-.01-0.073-0.01-0.11-0.02,0.385-7.19,6.766-12.93,14.554-12.93s14.17,5.74,14.554,12.93c-0.038.01-.076,0.01-0.114,0.02-0.019,0-.039.01-0.058,0.01l-0.263.06a0.092,0.092,0,0,0-.05.01l-0.218.06a0.154,0.154,0,0,0-.063.02,2.438,2.438,0,0,0-.256.08,0.039,0.039,0,0,1-.031.01,2.1,2.1,0,0,0-.224.1,0.163,0.163,0,0,0-.065.02l-0.245.12h0l-0.7.36c-0.032.02-.061,0.03-0.09,0.05l-0.072.05c-0.8-.83-3.029-3.12-3.877-3.98a11.417,11.417,0,0,0-8.136-3.43h-0.054a11.543,11.543,0,0,0-8.2,3.4l-2.593,2.58a0.744,0.744,0,0,0,1.044,1.06l2.593-2.59a10.073,10.073,0,0,1,7.157-2.96h0.047a9.932,9.932,0,0,1,7.088,2.98c0.877,0.89,3.235,3.32,3.953,4.06,0,0.03-.006.06-0.006,0.09v0.99a0.746,0.746,0,0,0,.764.74,0.762,0.762,0,0,0,.718-0.77v-0.47a0.467,0.467,0,0,1,.209-0.4,1.076,1.076,0,0,1,.1-0.06c0.009-.01.018-0.01,0.028-0.02l0.7-.35a3.629,3.629,0,0,1,1.677-.41A3.715,3.715,0,0,1,431.813,2784.28Zm-13.741-1.12a0.74,0.74,0,0,0-1.048,0,0.734,0.734,0,0,1-1.048,0,0.74,0.74,0,0,0-1.048,0,0.756,0.756,0,0,0,0,1.06,2.226,2.226,0,0,0,3.144,0A0.756,0.756,0,0,0,418.072,2783.16Zm-6.512-4.08a1.49,1.49,0,1,1-1.482,1.49A1.488,1.488,0,0,1,411.56,2779.08Zm9.88,0a1.49,1.49,0,1,1-1.482,1.49A1.488,1.488,0,0,1,421.44,2779.08Zm1.482-2.23h-2.964a0.748,0.748,0,0,0-.741.75,0.74,0.74,0,0,0,.741.74h2.964a0.74,0.74,0,0,0,.741-0.74A0.748,0.748,0,0,0,422.922,2776.85Zm-9.88,0h-2.964a0.748,0.748,0,0,0-.741.75,0.74,0.74,0,0,0,.741.74h2.964a0.74,0.74,0,0,0,.741-0.74A0.748,0.748,0,0,0,413.042,2776.85Z" transform="translate(-396 -2761)"/>
</svg>
