<svg width="22" height="49" viewBox="0 0 28 77" xmlns="http://www.w3.org/2000/svg">
  <path d="m2.828087,16.059959c0.400002,0.300003 0.900002,0.5 1.5,0.5c0.200001,0 0.400002,0 0.5,0c1,0 2,-0.299999 2.799999,-0.999999c0.400002,-0.299999 0.700001,-0.6 1,-0.799999c0.299999,-0.300001 0.700001,-0.6 1,-0.9c0.299999,-0.200001 0.5,-0.300001 0.700001,-0.300001c0.400002,0 0.700001,0.4 0.900002,0.700001c0.399998,0.799999 0.799999,1.5 1.399998,1.999999c0.200001,0.100002 0.299999,0.200001 0.5,0.299999c0,0 0,0 0.100002,0c0.299999,0.100002 0.699997,0.200001 1.099998,0.200001l0,0c0.400002,0 0.900002,-0.099998 1.5,-0.200001c0.200001,-0.099998 0.400002,-0.099998 0.599998,-0.199997c1.800003,-0.600001 3.600002,-1.000001 5.200001,-1.400002c1.799999,-0.4 2.799999,-1 3.200001,-2c0.400002,-1 0,-2.099998 -1,-3.5c-0.900002,-1.099998 -1.299999,-2 -0.900002,-3.699999c0,-0.200001 0,-0.4 -0.099998,-0.5c0,-0.1 -0.099998,-0.300001 -0.200001,-0.5c-0.200001,-0.700001 -0.5,-1.6 -1.200001,-2.200001c-0.399998,-0.299999 -0.899998,-0.5 -1.399998,-0.5c-0.400002,0 -0.799999,0.1 -1.100002,0.3s-0.699997,0.400001 -1,0.5c-0.199997,0.1 -0.399998,0.2 -0.5,0.3c-0.299999,0.2 -0.599998,0.3 -0.899998,0.5c-0.799999,0.4 -1.5,0.799999 -2.200001,1.1c-0.5,0.199999 -1,0.4 -1.599998,0.6c-0.600002,0.199999 -1.100002,0.4 -1.700001,0.599998c-0.5,0.200001 -1,0.400002 -1.400002,0.400002c-0.200001,0 -0.599998,0 -1,-0.400002c-0.5,-0.4 -1.200001,-0.5 -1.399998,-0.5c-0.200001,0 -0.400002,0 -0.600002,0.1c-0.700001,0.300001 -0.899998,1.200001 -1,1.700001l0,0c0,0.699999 -0.099998,1.4 -0.200001,1.699999c0,0 0,0.1 0,0.1c-0.199997,0.1 -1,0.1 -1.199997,0.1c-0.200001,0 -0.400002,0 -0.700001,0l-0.100002,0c-1.5,0 -2.299999,0.6 -2.599998,1.9c-0.200001,1.700001 0.799999,4.200001 2,4.999999zm0,-4.899999c0.099998,-0.1 0.299999,-0.1 0.599998,-0.1l0,0c0.100002,0 0.200001,0 0.300003,0c0.099998,0 0.299999,0 0.399998,0l0,0c0.5,0 0.900002,0 1.299999,-0.1c1.5,-0.299999 1.700001,-1.199999 1.800003,-3.299999l0,0c0,-0.1 0,-0.1 0,-0.200001c0.099998,0 0.099998,0 0.099998,0c0.599998,0.6 1.299999,0.900002 2.099998,0.900002c0.700001,0 1.400002,-0.200001 2,-0.5c0.5,-0.200001 1,-0.400002 1.5,-0.5c0.600002,-0.200001 1.200001,-0.400002 1.800003,-0.6c0.799999,-0.4 1.599998,-0.800001 2.399998,-1.200001c0.299999,-0.199999 0.600002,-0.299999 0.900002,-0.5c0.200001,-0.1 0.399998,-0.199999 0.599998,-0.4c0.400002,-0.299999 0.900002,-0.6 1.200001,-0.6c0.099998,0 0.200001,0 0.299999,0.1c0.299999,0.299999 0.600002,1 0.700001,1.4c0,0.1 0.099998,0.300001 0.099998,0.4c-0.399998,2.1 0.200001,3.5 1.300003,4.800001c0.299999,0.4 0.5,0.799999 0.699997,1.1c0.100002,0.199999 0.100002,0.299999 0.100002,0.4s0,0.199999 0,0.299999c-0.100002,0.200001 -0.299999,0.4 -0.600002,0.6s-0.799999,0.299999 -1.299999,0.4c-1.700001,0.300001 -3.5,0.800001 -5.399998,1.4c-0.100002,0.1 -0.200001,0.200001 -0.400002,0.200001c-0.5,0.1 -0.799999,0.200001 -1.099998,0.200001c-0.5,0 -0.800003,-0.1 -1.600002,-1.6c-0.5,-1 -1.399998,-1.6 -2.399998,-1.6c-0.100002,0 -0.300003,0 -0.400002,0c-0.400002,0.1 -0.799999,0.200001 -1.200001,0.5c-0.399998,0.299999 -0.799999,0.700001 -1.200001,1c-0.299999,0.299999 -0.599998,0.5 -0.899998,0.700001c-0.5,0.4 -1.200001,0.599998 -1.799999,0.599998c-0.400002,0 -0.800003,-0.099998 -1.100002,-0.299999c-0.200001,-0.200001 -0.5,-0.5 -0.700001,-0.9c-0.299999,-0.6 -0.5,-1.300001 -0.5,-1.800001c0,-0.099998 0,-0.199999 0,-0.299999c0.100002,-0.200001 0.200001,-0.4 0.400002,-0.5zm22,29.000001c0,0 -0.099998,0 0,0c0,0 0,0 0,0l0.099998,0c1.300003,0 2.300003,-0.5 2.800003,-1.299999c0.5,-0.799999 0.5,-1.799999 0,-2.900002c-0.800003,-1.5 -0.900002,-3 -0.300003,-4.599998c0.200001,-0.600002 0.300003,-1.200001 0.300003,-1.700001c0,-0.5 -0.200001,-1 -0.5,-1.400002c0,0 0,0 0,0c-0.100002,-0.099998 -0.200001,-0.199997 -0.300003,-0.299999c0,0 0,0 -0.099998,0c-0.099998,-0.099998 -0.200001,-0.200001 -0.299999,-0.200001c0,0 0,0 0,0c-0.200001,-0.099998 -0.400002,-0.199997 -0.700001,-0.299999c0,0 0,0 0,0c0.200001,-0.099998 0.400002,-0.200001 0.599998,-0.299999c0,0 0.100002,0 0.100002,0c0.200001,-0.099998 0.299999,-0.200001 0.399998,-0.299999c0,0 0,0 0.100002,-0.100002c0.099998,-0.099998 0.200001,-0.199997 0.299999,-0.299999c0,0 0,0 0,-0.099998c0.099998,-0.100002 0.099998,-0.200001 0.200001,-0.299999c0.200001,-0.600002 0.399998,-1.5 -0.400002,-2.700001c-1.099998,-1.799999 -1.799999,-3.100002 -1.200001,-4.600002c0,-0.099998 0.100002,-0.200001 0.100002,-0.299999c0,-1.299999 -0.299999,-2.299999 -0.900002,-2.900001c-0.200001,-0.199999 -0.399998,-0.4 -0.700001,-0.5c-0.099998,-0.1 -0.199997,-0.1 -0.399998,-0.1c0,0 0,0 0,0c-0.5,-0.099998 -1.100002,-0.099998 -1.700001,0.200001c0,0 0,0 -0.099998,0c-0.200001,0.1 -0.300003,0.1 -0.5,0.200001c-1.5,0.899999 -3.100002,1.3 -4.800003,1.8c-1,0.299999 -2,0.599998 -3,1c-0.5,0.200001 -0.899998,0.299999 -1.199997,0.299999c-0.300003,0 -0.700001,-0.099998 -1.100002,-0.599998c-0.299999,-0.400002 -0.899998,-0.600002 -1.399998,-0.600002c-0.200001,0 -0.400002,0.100002 -0.600002,0.200001c-0.599998,0.400002 -0.899998,1.099998 -1,1.599998c-0.099998,0.700001 -0.200001,1.600002 -0.299999,1.700001c0,0 -0.099998,0.100002 -0.700001,0.100002c-0.299999,0 -0.599998,0 -1.099998,0l-0.100002,0c-0.799999,0 -1.899998,0.399998 -2.399998,0.899998c-0.299999,0.300003 -0.299999,0.600002 -0.299999,0.700001c0.099998,1.5 0.199997,2.900002 0.799999,4.200001c0.5,1 1.399998,1.5 2.599998,1.5c0.5,0 1.099998,-0.099998 1.599998,-0.299999c0.800003,-0.299999 1.5,-0.900002 2.200001,-1.299999c0.200001,-0.200001 0.400002,-0.300003 0.600002,-0.5c0.5,-0.300003 0.799999,-0.400002 1,-0.5c0.099998,0 0.099998,0 0.200001,0c0.399998,0 0.699997,0.399998 0.899998,1.199997c0.100002,0.300003 0.200001,0.5 0.299999,0.700001c0,0.100002 0.100002,0.100002 0.100002,0.200001c0.099998,0.200001 0.200001,0.400002 0.299999,0.5c0,0 0,0 0,0c0.099998,0.200001 0.299999,0.299999 0.400002,0.400002c0,0 0.099998,0.099998 0.099998,0.099998c0.099998,0.099998 0.299999,0.200001 0.5,0.200001c0,0 0,0 0.099998,0c-0.199997,0 -0.299999,0 -0.5,0.099998c0,0 0,0 -0.099998,0c-0.299999,0 -0.799999,-0.200001 -1.200001,-0.399998c-0.200001,-0.100002 -0.400002,-0.200001 -0.5,-0.200001c-0.200001,-0.100002 -0.5,-0.299999 -0.799999,-0.5c-0.100002,-0.100002 -0.299999,-0.200001 -0.400002,-0.299999c-0.200001,-0.100002 -0.399998,-0.200001 -0.700001,-0.100002c-0.199997,0.100002 -0.399998,0.200001 -0.5,0.400002c-0.099998,0.099998 -0.099998,0.299999 -0.199997,0.399998c-0.200001,0.300003 -0.5,0.700001 -0.600002,1.200001c-0.299999,1.100002 -0.5,1.100002 -0.799999,1.100002c-0.200001,0 -0.5,0 -0.799999,-0.100002c-0.799999,-0.200001 -1.400002,-0.299999 -1.900002,-0.299999c-0.599998,0 -1.099998,0.200001 -1.5,0.599998c-0.599998,0.600002 -0.700001,1.600002 -0.700001,2.900002c0.100002,3.5 2.200001,4 3.5,4c0.5,0 1,-0.099998 1.600002,-0.200001c0.799999,-0.200001 1.5,-0.599998 2.099998,-0.899998c0.700001,-0.400002 1.200001,-0.5 1.400002,-0.5c0.200001,0 0.599998,0 0.899998,1.599998c0,0.099998 0,0.200001 0.100002,0.299999c-0.100002,-0.099998 -0.200001,-0.200001 -0.299999,-0.299999c-0.100002,-0.099998 -0.100002,-0.099998 -0.200001,-0.200001c-0.200001,-0.200001 -0.400002,-0.299999 -0.600002,-0.299999c-0.199997,0 -0.5,0.099998 -0.599998,0.200001c-0.099998,0.099998 -0.200001,0.200001 -0.299999,0.200001c-0.200001,0.199997 -0.5,0.5 -0.700001,0.699997c-0.200001,0.200001 -0.299999,0.5 -0.400002,0.700001c-0.099998,0.200001 -0.199997,0.400002 -0.299999,0.400002c-0.299999,0.299999 -0.5,0.399998 -0.700001,0.399998c-0.299999,0 -0.599998,-0.199997 -0.899998,-0.299999c-0.100002,-0.099998 -0.200001,-0.099998 -0.299999,-0.200001c-0.800003,-0.5 -1.400002,-0.799999 -2,-0.799999c-1.300003,0 -1.800003,1.400002 -2.100002,2.299999l-0.099998,0.200001c-0.100002,0.200001 -0.200001,0.5 -0.200001,0.700001c-0.099998,0.299999 -0.099998,0.599998 -0.099998,1c0,0.900002 0.299999,1.799999 0.899998,2.5c0.700001,0.900002 1.799999,1.400002 3,1.400002c0.299999,0 0.600002,0 0.799999,-0.100002c0.400002,-0.099998 0.800003,-0.200001 1.200001,-0.299999c0.200001,-0.099998 0.5,-0.099998 0.700001,-0.200001c0.400002,-0.099998 0.700001,-0.099998 1,-0.099998s0.400002,0.099998 0.5,0.200001c0.099998,0.099998 0.200001,0.399998 0.200001,1.099998c0,0.099998 0,0.200001 0,0.299999c-0.100002,2.100002 0.599998,3.100002 2.5,3.600002c0.5,0.099998 1,0.199997 1.399998,0.399998c-0.699997,-0.099998 -1.399998,-0.099998 -2.199997,-0.200001c-1.100002,-0.099998 -1.5,-0.399998 -1.700001,-1c-0.100002,-0.399998 -0.799999,-1.5 -1.600002,-1.5c-0.099998,0 -0.099998,0 -0.199997,0c-0.700001,0.100002 -1.300003,0.700001 -1.600002,1.300003c-0.200001,0.399998 -0.399998,0.699997 -0.599998,0.899998c-0.200001,0.200001 -0.299999,0.299999 -0.400002,0.299999c-0.099998,0 -0.200001,0 -0.299999,-0.099998c-0.200001,-0.099998 -0.5,-0.200001 -0.900002,-0.5c-0.899998,-0.599998 -1.5,-0.799999 -2.099998,-0.799999c-1.599998,0 -2.099998,1.799999 -2.299999,2.399998c-0.100002,0.400002 -0.200001,0.800003 -0.200001,1.099998c0,0.100006 0,0.200005 0,0.200005c0,0.099998 0,0.099998 0,0.199997c0,2.300003 1.299999,3.900002 3.5,4c0.900002,0 1.799999,-0.099998 2.599998,-0.199997c0.300003,0 0.600002,-0.099998 0.900002,-0.099998c0.299999,0 0.5,0 0.700001,0s0.399998,0.099998 0.5,0.199997c0.099998,0.099998 0.200001,0.400002 0.200001,0.800003c0,0.099998 0,0.199997 0,0.399994c0,0.400002 0,0.700005 0,1c0,0.100006 0,0.200005 0,0.300003c0,0.199997 0,0.400002 0.099998,0.599998c0,0.099998 0,0.200005 0.099998,0.300003c0,0.199997 0.100002,0.299995 0.200001,0.400002c0,0.099998 0.100002,0.099998 0.100002,0.199997c0.099998,0.199997 0.199997,0.300003 0.399998,0.400002c0,0 0,0 0.100002,0.099998c-0.200001,0 -0.400002,-0.099998 -0.5,-0.099998c-1.100002,-0.200005 -1.5,-0.400002 -1.700001,-1.200005c-0.200001,-1 -0.900002,-1.399994 -1.400002,-1.399994c-0.399998,0 -1,0.199997 -1.5,0.899994c-0.200001,0.300003 -0.5,0.700005 -0.700001,0.900002c-0.099998,0.099998 -0.099998,0.099998 -0.199997,0.200005c-0.200001,-0.100006 -0.700001,-0.400002 -1.200001,-0.700005c-0.5,-0.400002 -1.5,-0.599998 -2,-0.599998c-0.600002,0 -0.799999,0.300003 -0.900002,0.5c-0.5,1 -1.200001,2.199997 -1.299999,3.499996c-0.099998,1.400002 1,2.5 2.700001,2.900002c0.299999,0.099998 0.5,0.099998 0.799999,0.099998c0.200001,0 0.400002,0 0.599998,0c0.200001,0 0.400002,0 0.600002,0c0.5,0 0.899998,-0.099998 1.200001,-0.099998c0.599998,0 0.799999,0.099998 0.799999,0.099998c0,0.099998 0.099998,0.300003 0.099998,0.599998s0,0.700005 -0.099998,1.200005c-0.299999,2.099998 1.399998,2.699997 2,3c1.899998,0.699997 3.900002,1.5 5.900002,2.199997c0.5,0.199997 1,0.300003 1.399998,0.300003c0.799999,0 1.299999,-0.300003 1.600002,-0.600006c0.5,-0.5 0.699997,-1.299995 0.599998,-2.199997c-0.099998,-1.5 0.299999,-2.699997 1.299999,-3.800003c1,-1.199997 0.900002,-2.199997 0.700001,-2.599998c0,0 0,-0.099998 0,-0.099998c0.099998,0 0.200001,0 0.299999,0.099998c0.100002,0 0.200001,0 0.200001,0c0.299999,0 0.5,0.099998 0.799999,0.099998c1.100002,0 1.700001,-0.5 2,-0.899994c0.600002,-0.700001 0.799999,-1.799999 0.5,-3.299999c-0.200001,-1.300003 0,-2.300003 0.700001,-3.199997c0.299999,-0.400002 0.599998,-0.900002 0.799999,-1.400002c0.400002,-0.900002 0.400002,-1.900002 0,-2.599998c-0.099998,-0.200005 -0.200001,-0.300003 -0.399998,-0.400002c0,0 -0.100002,-0.099998 -0.100002,-0.099998c-0.099998,-0.100006 -0.099998,-0.100006 -0.200001,-0.200005c0,0 0,0 0,0c0.100002,-0.099998 0.200001,-0.099998 0.300003,-0.199997c0,0 0.099998,-0.099998 0.099998,-0.099998c0.099998,-0.100006 0.200001,-0.200005 0.299999,-0.300003c0,0 0,0 0,0c0.400002,-0.5 0.600002,-1.200001 0.600002,-2c0,-0.299999 -0.100002,-0.599998 -0.100002,-0.900002c-0.299999,-1.5 -0.099998,-2.799999 0.700001,-4c1,-1.599998 0.900002,-2.699997 0.599998,-3.299999c0.100002,-1.299999 -0.699997,-2.099998 -2.599998,-2.299999zm-0.599998,0c-0.099998,0 -0.299999,0 -0.399998,0c-0.100002,0 -0.100002,0 -0.200001,0c0.200001,0 0.5,0 0.700001,0c-0.000004,0 -0.100002,0 -0.100002,0zm-11.100002,-16.400002c-0.599998,0 -1.299999,0.299999 -2.099998,0.799999c-0.200001,0.200001 -0.400002,0.299999 -0.700001,0.5c-0.5,0.299999 -0.900002,0.700001 -1.400002,0.900002c-0.200001,0.099998 -0.299999,0.199997 -0.5,0.199997c-0.299999,0.100002 -0.700001,0.200001 -1,0.200001c-0.5,0 -0.899998,-0.200001 -1.099998,-0.599998c-0.400002,-0.900002 -0.600002,-1.900002 -0.600002,-3.099998c0.300003,-0.100002 0.700001,-0.299999 1,-0.299999c0,0 0,0 0,0l0,0c0.200001,0 0.400002,0 0.5,0c0.200001,0 0.400002,0 0.600002,0c2.299999,0 2.5,-1.200005 2.700001,-3.300003c0,-0.099998 0,-0.200001 0.099998,-0.200001c0,0 0,0 0,0c0.299999,0.400002 0.700001,0.600002 1.099998,0.799999s0.800003,0.300003 1.300003,0.300003c0.5,0 1.099998,-0.100002 1.799999,-0.400002c0.899998,-0.400002 1.899998,-0.599998 2.799999,-0.900002c0.400002,-0.099998 0.900002,-0.299999 1.299999,-0.399998c1.299999,-0.400002 2.600002,-0.900002 3.900002,-1.600002c0.399998,-0.199997 0.599998,-0.299999 0.799999,-0.299999c0.200001,0 0.299999,0 0.400002,0.200001c0,0 0,0 0.099998,0.099998c0.099998,0.200001 0.299999,0.5 0.400002,1.100002c0,0.099998 0,0.200001 0,0.399998c-0.200001,0.600002 -0.300003,1.100002 -0.300003,1.700001c0,1.100002 0.5,2.100002 1,3.000004c0.200001,0.5 0.5,0.899998 0.800003,1.299999c0.299999,0.5 0.399998,0.899998 0.299999,1.099998c-0.100002,0.299999 -0.5,0.5 -1.100002,0.700001c-2.799999,0.599998 -5.599998,1.099998 -7.699997,1.400002c-0.200001,0 -0.299999,0 -0.400002,0c-0.399998,0 -0.899998,-0.100002 -1.200001,-1.200001c-0.899998,-2 -2,-2.400002 -2.799999,-2.400002zm0.299999,10.600002c-0.600002,0 -1.299999,0.200001 -2.200001,0.700001c-0.599998,0.299999 -1.200001,0.599998 -1.700001,0.799999c-0.399998,0.099998 -0.799999,0.200001 -1.200001,0.200001c-0.899998,0 -1.799999,-0.299999 -1.899998,-2.400002c0,-0.200001 0,-0.299999 0,-0.399998c0,-0.800003 0.099998,-1.100002 0.200001,-1.200001c0,0 0,0 0,0c0,0 0.199997,-0.100002 0.299999,-0.100002c0.299999,0 0.799999,0.100002 1.399998,0.300003c0.5,0.099998 0.900002,0.199997 1.200001,0.199997c1.900002,0 2.299999,-1.799999 2.400002,-2.399998c0,-0.100002 0.099998,-0.299999 0.200001,-0.400002c0.199997,0.100002 0.5,0.299999 0.699997,0.400002c0.200001,0.099998 0.300003,0.099998 0.5,0.200001c0.100002,0.099998 0.300003,0.099998 0.400002,0.199997c0.5,0.200001 0.900002,0.400002 1.400002,0.400002l0,0l0,0c0.099998,0 0.199997,0 0.299999,0c0.899998,-0.200001 1.899998,-0.200001 2.799999,-0.299999c0.5,0 1,-0.100002 1.5,-0.100002c1.5,-0.199997 3,-0.399998 4.400002,-1c0.700001,-0.299999 1.299999,-0.199997 1.5,0.100002c0.099998,0.200001 0.200001,0.399998 0.200001,0.700001c0,0.099998 0,0.299999 0,0.399998c0,0.200001 -0.100002,0.299999 -0.100002,0.5c-0.299999,0.799999 -0.399998,1.5 -0.5,2.299999c0,1 0.100002,1.900002 0.5,2.900002c0.100002,0.200001 0.200001,0.5 0.300003,0.700001c0.099998,0.299999 0.399998,0.899998 0.099998,1.299999c-0.200001,0.299999 -0.700001,0.599998 -1.400002,0.599998l0,0c-2.400002,0 -4.799999,0 -7,0.100002c-1,0 -1.899998,-0.5 -2,-1.299999c-0.099998,-2.400002 -0.999996,-3.400002 -2.299999,-3.400002zm5.300003,31.799995c-1.200001,1.400002 -1.799999,3 -1.599998,5c0,0.699997 -0.100002,0.900002 -0.200001,1c0,0 -0.100002,0.099998 -0.400002,0.099998c-0.200001,0 -0.5,-0.099998 -0.799999,-0.199997c-2,-0.700005 -4,-1.5 -5.900002,-2.200005c-0.899998,-0.399994 -1,-0.699997 -1,-1.199997c0.100002,-0.5 0.100002,-1 0.100002,-1.400002c0,-0.699997 -0.100002,-1.199997 -0.5,-1.699997c-0.5,-0.599998 -1.300003,-0.700005 -2,-0.700005c-0.300003,0 -0.700001,0 -1.300003,0.100006c-0.199997,0 -0.399998,0 -0.599998,0c-0.200001,0 -0.400002,0 -0.5,0l0,0c-0.200001,0 -0.400002,0 -0.5,0c-0.200001,0 -1.400002,-0.300003 -1.400002,-1.100002c0.100002,-0.799995 0.5,-1.599998 0.900002,-2.399994c0.299999,0.099998 0.599998,0.199997 0.799999,0.299995c0.299999,0.200005 0.600002,0.400002 0.799999,0.5c0.5,0.300003 0.900002,0.5 1.300003,0.5c0.199997,0 0.399998,0 0.599998,-0.099998c0.599998,-0.199997 1,-0.800003 1.599998,-1.599998c0,0 0,-0.099998 0.100002,-0.099998c0.399998,1.399994 1.299999,1.899994 2.200001,2.199997c0.299999,0.099998 0.599998,0.099998 0.799999,0.199997c1,0.200005 2,0.400002 3,0.600006c1.299999,0.199993 2.599998,0.499996 3.900002,0.699993c0.599998,0.099998 1,0.300003 1.099998,0.599998c0,0.099998 -0.200001,0.5 -0.5,0.900002zm5.699997,-10.799999c-0.200001,0.400002 -0.400002,0.699997 -0.600002,1c-0.299999,0.300003 -0.5,0.599998 -0.599998,1c-0.299999,0.699997 -0.5,1.400002 -0.5,2.199997c0,0.400002 0,0.800003 0.099998,1.300003c0,0.199997 0.100002,0.300003 0.100002,0.400002c0,0.099998 0,0.299995 0,0.400002c0,0.699997 -0.100002,1 -0.200001,1.099998c-0.099998,0.099998 -0.200001,0.299995 -0.799999,0.299995c-0.200001,0 -0.400002,0 -0.600002,-0.099998c-0.199997,0 -0.5,-0.099998 -0.699997,-0.199997c-1.800003,-0.599998 -3.800003,-1.099998 -6,-1.700005c-1.700001,-0.399994 -1.900002,-0.699997 -1.700001,-2.399994c0.099998,-1 -0.100002,-1.800003 -0.600002,-2.400002c-0.199997,-0.200005 -0.599998,-0.5 -1,-0.599998c-0.299999,-0.100006 -0.599998,-0.200005 -1,-0.200005c-0.199997,0 -0.399998,0 -0.599998,0c-0.299999,0 -0.599998,0.099998 -0.900002,0.099998c-0.799999,0.100006 -1.599998,0.200005 -2.299999,0.200005c-0.399998,0 -0.799999,-0.099998 -1.099998,-0.400002c-0.5,-0.400002 -0.799999,-1 -0.799999,-1.800003c0,-0.099998 0,-0.099998 0,-0.199997c0,-0.300003 0.099998,-0.599998 0.199997,-0.900002c0.100002,-0.5 0.400002,-1.199997 0.700001,-1.199997c0.100002,0 0.5,0.099998 1.200001,0.5c0.900002,0.599998 1.5,0.799995 2.099998,0.799995c1.200001,0 1.800003,-0.999996 2.400002,-1.999996c0.099998,-0.100002 0.200001,-0.299999 0.299999,-0.299999c0.100002,0.099998 0.100002,0.199997 0.100002,0.199997c0.199997,0.700001 0.599998,1.200001 1.099998,1.5c0.700001,0.5 1.599998,0.599998 2,0.700005c1.299999,0.099998 2.5,0.299995 3.799999,0.399994c1.600002,0.200005 3.299999,0.300003 5,0.5c0.100002,0 0.200001,0 0.299999,0.100006c0.300003,0.099998 0.5,0.199997 0.600002,0.399994c0.099998,0.100006 0.099998,0.300003 0.099998,0.5c0.100002,0.300003 0.000004,0.500008 -0.099998,0.800003zm1.5,-11.199997c-1.100002,1.599998 -1.400002,3.299999 -1,5.299999c0.200001,0.700001 0.099998,1.299999 -0.100002,1.600002c-0.199997,0.199997 -0.599998,0.299999 -1.099998,0.299999c-0.200001,0 -0.400002,0 -0.599998,-0.100002c-2.099998,-0.399998 -4.300003,-1 -7.099998,-1.699997c-1.200005,-0.300003 -1.400002,-0.5 -1.300003,-1.900002c0,-0.299999 0,-0.599998 0,-0.900002c-0.099998,-0.799999 -0.299999,-1.399998 -0.699997,-1.799999c-0.400002,-0.5 -1,-0.700001 -1.800003,-0.700001c-0.399998,0 -0.799999,0.100002 -1.299999,0.200001c-0.299999,0.100002 -0.5,0.100002 -0.799999,0.200001c-0.400002,0.099998 -0.700001,0.200001 -1.099998,0.299999c-0.200001,0 -0.400002,0 -0.600002,0c0,0 -0.099998,0 -0.099998,0c-0.200001,0 -0.299999,0 -0.5,-0.099998c-0.100002,0 -0.100002,0 -0.200001,0c-0.099998,0 -0.299999,-0.100002 -0.400002,-0.200001c0,0 -0.099998,0 -0.099998,-0.099998c-0.200001,-0.100002 -0.299999,-0.200001 -0.400002,-0.400002c0,0 0,0 0,0c-0.299999,-0.400002 -0.5,-0.900002 -0.5,-1.5c0,-0.200001 0,-0.400002 0.100002,-0.599998c0,-0.200001 0.099998,-0.300003 0.099998,-0.5l0.100002,-0.200001c0.099998,-0.400002 0.299999,-0.700001 0.299999,-0.900002c0.099998,-0.200001 0.099998,-0.200001 0.200001,-0.299999c0.099998,0 0.399998,0.099998 1.099998,0.599998c0.5,0.300003 1.200001,0.700001 1.900002,0.700001c0.099998,0 0.099998,0 0.199997,0l0,0l0,0c0.700001,0 1.300003,-0.299999 1.900002,-0.899998c0.299999,-0.300003 0.400002,-0.600002 0.599998,-0.800003c0.100002,-0.199997 0.200001,-0.299999 0.200001,-0.399998c0.100002,-0.100002 0.100002,-0.200001 0.200001,-0.200001c0,0 0,0 0,0c0.299999,0.900002 0.900002,1.599998 1.700001,1.900002c0.5,0.199997 1,0.299999 1.700001,0.299999l0.099998,0c0.400002,0 0.900002,0 1.299999,0.099998c0.200001,0 0.299999,0 0.5,0c0.700001,0 1.400002,0.100002 2,0.100002c1.100002,0.099998 2.200001,0.199997 3.200001,0.199997c0.200001,0 0.400002,0 0.599998,0c0.100002,0 0.300003,0 0.400002,0c0.900002,0.100002 1.5,0.300003 1.700001,0.600002c0.200001,0.5 0,1.099998 -0.400002,1.799999z" class="st0"/>
</svg>
