<svg xmlns="http://www.w3.org/2000/svg" width="40" height="40" viewBox="0 0 40 40">
  <path d="M1253.59,2794.36l-2.34-1.17a10.206,10.206,0,0,0,3.04-1.36,1.2,1.2,0,0,0,.42-1.45,16.028,16.028,0,0,1-1.01-5.56,6.324,6.324,0,0,0-5.64-6.26,7.616,7.616,0,0,0-1.17,0,6.324,6.324,0,0,0-5.64,6.26,15.763,15.763,0,0,1-1.02,5.56,1.212,1.212,0,0,0,.43,1.45,10.078,10.078,0,0,0,3.04,1.36l-2.34,1.17a2.453,2.453,0,0,0-1.36,2.2v3.85a0.585,0.585,0,1,0,1.17,0v-3.85a1.285,1.285,0,0,1,.72-1.15l1.85-.93a4.329,4.329,0,0,0,7.47,0l1.85,0.93a1.285,1.285,0,0,1,.72,1.15v3.85a0.585,0.585,0,1,0,1.17,0v-3.85A2.453,2.453,0,0,0,1253.59,2794.36Zm-6.12,1.08a3.178,3.178,0,0,1-2.68-1.48l0.38-.19a1.83,1.83,0,0,0,1.01-1.65v-0.69a4.621,4.621,0,0,0,1.29.18,4.691,4.691,0,0,0,1.3-.18v0.69a1.83,1.83,0,0,0,1.01,1.65l0.38,0.19A3.169,3.169,0,0,1,1247.47,2795.44Zm2.49-3.14a0.9,0.9,0,0,1-.02-0.18v-1.17a5.029,5.029,0,0,0,1.86-1.86,3.637,3.637,0,0,0-.71-4.44,6.985,6.985,0,0,0-4.87-1.73,0.583,0.583,0,0,0-.41.17l-1.25,1.25a0.585,0.585,0,0,0,0,.83,0.573,0.573,0,0,0,.82,0l1.08-1.08a5.8,5.8,0,0,1,3.84,1.42,2.464,2.464,0,0,1,.48,3,3.8,3.8,0,0,1-7.1-1.87,0.591,0.591,0,0,0-.59-0.59,0.583,0.583,0,0,0-.58.59,4.981,4.981,0,0,0,2.5,4.31v1.17a0.9,0.9,0,0,1-.02.18,9.83,9.83,0,0,1-3.65-1.43c-0.01-.01-0.03-0.02-0.02-0.04a17.293,17.293,0,0,0,1.1-6.01,5.136,5.136,0,0,1,4.58-5.09,5.025,5.025,0,0,1,.95,0,5.136,5.136,0,0,1,4.58,5.09,17.293,17.293,0,0,0,1.1,6.01c0.01,0.02-.01.03-0.02,0.04A9.83,9.83,0,0,1,1249.96,2792.3Zm-6.87,5.02a0.6,0.6,0,0,0-.59.59v2.5a0.59,0.59,0,1,0,1.18,0v-2.5A0.6,0.6,0,0,0,1243.09,2797.32Zm8.77,0a0.591,0.591,0,0,0-.59.59v2.5a0.585,0.585,0,1,0,1.17,0v-2.5A0.589,0.589,0,0,0,1251.86,2797.32Zm22.87-13.68a7.582,7.582,0,0,0-5.45-.71,0.6,0.6,0,0,0-.47.57v0.63a0.585,0.585,0,1,0,1.17,0V2784a7.477,7.477,0,0,1,2.89.13,4.779,4.779,0,0,1,1.21.49,0.55,0.55,0,0,0,.32.1,0.582,0.582,0,0,0,.49-0.26A0.593,0.593,0,0,0,1274.73,2783.64Zm3.67,10.13-2.98-1.11a0.673,0.673,0,0,1-.43-0.63v-1.5a3.8,3.8,0,0,0,.37-0.33,4.931,4.931,0,0,0,1.51-3.56v-1.12l0.17-.33a4.36,4.36,0,0,0,.45-1.95v-3.49a0.583,0.583,0,0,0-.58-0.59h-6.53a4.084,4.084,0,0,0-4.08,4.08,4.369,4.369,0,0,0,.46,1.95l0.17,0.33v0.93a5.247,5.247,0,0,0,1.88,4.02v1.56a0.664,0.664,0,0,1-.43.62l-2.98,1.12a2.478,2.478,0,0,0-1.6,2.31v4.33a0.585,0.585,0,1,0,1.17,0v-4.33a1.3,1.3,0,0,1,.84-1.21l2.98-1.12a1.7,1.7,0,0,0,.44-0.24l2.08,1.56v5.34a0.591,0.591,0,0,0,.59.59,0.583,0.583,0,0,0,.58-0.59v-5.34l2.09-1.56a1.7,1.7,0,0,0,.44.24l2.98,1.12a1.3,1.3,0,0,1,.84,1.21v4.33a0.585,0.585,0,1,0,1.17,0v-4.33A2.478,2.478,0,0,0,1278.4,2793.77Zm-6.5.28-2-1.5a1.821,1.821,0,0,0,.08-0.52v-0.83a4.581,4.581,0,0,0,1.77.4,0.757,0.757,0,0,0,.15.01,4.99,4.99,0,0,0,1.92-.39v0.81a2.247,2.247,0,0,0,.07.52Zm2.64-4.69a3.768,3.768,0,0,1-2.76,1.07,3.918,3.918,0,0,1-3.68-3.98v-1.07a0.583,0.583,0,0,0-.06-0.26l-0.23-.46a3.161,3.161,0,0,1-.34-1.42,2.919,2.919,0,0,1,2.91-2.91h5.94v2.91a3.152,3.152,0,0,1-.33,1.42l-0.23.46a0.583,0.583,0,0,0-.06.26v1.26A3.744,3.744,0,0,1,1274.54,2789.36Zm-7.02,7.34a0.583,0.583,0,0,0-.59.58v3.13a0.585,0.585,0,1,0,1.17,0v-3.13A0.58,0.58,0,0,0,1267.52,2796.7Zm8.76,0a0.58,0.58,0,0,0-.58.58v3.13a0.585,0.585,0,1,0,1.17,0v-3.13A0.583,0.583,0,0,0,1276.28,2796.7Zm-7.51-33.19h-0.04v-0.05a2.473,2.473,0,0,0-2.47-2.46h-17.53a2.473,2.473,0,0,0-2.47,2.46v10.02a2.475,2.475,0,0,0,2.47,2.47h2.54v0.04a2.467,2.467,0,0,0,2.47,2.46h0.5l-0.24.94a0.915,0.915,0,0,0,.37.97,0.946,0.946,0,0,0,.51.15,0.88,0.88,0,0,0,.53-0.17l2.59-1.89h0.57l4.89,3.26a0.89,0.89,0,0,0,.5.15,0.818,0.818,0,0,0,.48-0.14,0.885,0.885,0,0,0,.4-0.9l-0.39-2.37h4.32a2.458,2.458,0,0,0,2.46-2.46v-10.02A2.458,2.458,0,0,0,1268.77,2763.51Zm-14.24,13.77h-0.79a1.3,1.3,0,0,1-1.3-1.29v-0.04h2.43Zm0.79,1.67,0.86-3.44a0.573,0.573,0,0,0-.56-0.73h-6.89a1.3,1.3,0,0,1-1.3-1.29v-10.03a1.3,1.3,0,0,1,1.3-1.29h17.53a1.3,1.3,0,0,1,1.3,1.29v10.02a1.3,1.3,0,0,1-1.3,1.3h-5.01a0.6,0.6,0,0,0-.34.11Zm14.74-2.96a1.293,1.293,0,0,1-1.29,1.29h-5.01a0.6,0.6,0,0,0-.45.21,0.581,0.581,0,0,0-.13.47l0.4,2.43-4.3-2.87,2.16-1.57h4.82a2.473,2.473,0,0,0,2.47-2.46v-8.81h0.04a1.293,1.293,0,0,1,1.29,1.29v10.02h0Zm-16.95-11.23h-1.88a0.585,0.585,0,0,0,0,1.17h1.88A0.585,0.585,0,1,0,1253.11,2764.76Zm10.65,0h-8.14a0.585,0.585,0,1,0,0,1.17h8.14A0.585,0.585,0,0,0,1263.76,2764.76Zm0,3.13h-12.53a0.585,0.585,0,0,0,0,1.17h12.53A0.585,0.585,0,0,0,1263.76,2767.89Zm-4.39,3.13h-8.14a0.585,0.585,0,0,0,0,1.17h8.14A0.585,0.585,0,1,0,1259.37,2771.02Zm4.39,0h-1.88a0.585,0.585,0,1,0,0,1.17h1.88A0.585,0.585,0,0,0,1263.76,2771.02Z" transform="translate(-1240 -2761)"/>
</svg>
