<svg xmlns="http://www.w3.org/2000/svg" width="36" height="39" viewBox="0 0 36 39">
  <path d="M429.176,2871.82a16.471,16.471,0,0,0-28.118,11.49l-3,5.99a0.565,0.565,0,0,0,.218.74l2.779,1.67v8.83a0.577,0.577,0,0,0,.573.58h5.542v4.31a0.573,0.573,0,0,0,1.146,0v-4.89a0.574,0.574,0,0,0-.573-0.57H402.2v-8.59a0.579,0.579,0,0,0-.278-0.49l-2.6-1.55,2.82-5.64a0.542,0.542,0,0,0,.06-0.25,15.325,15.325,0,1,1,24.756,12.06,0.567,0.567,0,0,0-.22.45v9.47a0.573,0.573,0,0,0,1.146,0v-9.19A16.432,16.432,0,0,0,429.176,2871.82Zm-11.647,1.9a7.9,7.9,0,0,0-3.02,15.2v1.28H413.86a0.575,0.575,0,0,0-.574.57v4.28a3.018,3.018,0,0,0,3.02,3.01h2.445a3.018,3.018,0,0,0,3.02-3.01v-4.28a0.575,0.575,0,0,0-.574-0.57h-0.65v-1.28a7.87,7.87,0,0,0,3.407-2.7,0.571,0.571,0,1,0-.931-0.66,6.855,6.855,0,0,1-3.24,2.43,0.562,0.562,0,0,0-.382.53v1.68h-3.745v-1.68a0.561,0.561,0,0,0-.383-0.53,6.754,6.754,0,1,1,8.807-4.68,0.572,0.572,0,0,0,1.11.28A7.9,7.9,0,0,0,417.529,2873.72Zm3.1,21.33a1.874,1.874,0,0,1-1.873,1.87h-2.445a1.874,1.874,0,0,1-1.873-1.87v-0.04h6.191v0.04Zm0-1.19h-6.153c-0.013,0-.026.01-0.038,0.01v-0.69h6.191v0.68Zm-0.65-2.51h0.65v0.68h-6.191v-0.68h5.541Zm1.223-10.92h-2.484v-3.09a0.582,0.582,0,0,0-1-.38l-4.28,4.89a0.578,0.578,0,0,0,.431.95h2.485v3.09a0.583,0.583,0,0,0,.371.54,0.6,0.6,0,0,0,.633-0.16l4.281-4.89A0.578,0.578,0,0,0,421.2,2880.43Zm-3.707,3.94v-2.14a0.576,0.576,0,0,0-.573-0.58h-1.794l2.444-2.78V2881a0.576,0.576,0,0,0,.573.58h1.794Zm0.038-13.71a0.577,0.577,0,0,0-.573.58v1.22a0.574,0.574,0,0,0,1.147,0v-1.22A0.577,0.577,0,0,0,417.528,2870.66Zm-6.08,4.07-0.865-.86a0.58,0.58,0,0,0-.81,0,0.572,0.572,0,0,0,0,.81l0.864,0.86a0.574,0.574,0,0,0,.842-0.03A0.582,0.582,0,0,0,411.448,2874.73Zm-3.092,6.31h-1.223a0.575,0.575,0,0,0,0,1.15h1.223A0.575,0.575,0,0,0,408.356,2881.04Zm3.092,6.65a0.563,0.563,0,0,0-.811,0l-0.864.86a0.573,0.573,0,1,0,.81.81l0.865-.86A0.572,0.572,0,0,0,411.448,2887.69Zm13.836,0.86-0.865-.86a0.562,0.562,0,0,0-.81,0,0.572,0.572,0,0,0,0,.81l0.864,0.86A0.573,0.573,0,0,0,425.284,2888.55Zm2.64-7.51H426.7a0.575,0.575,0,0,0,0,1.15h1.223A0.575,0.575,0,0,0,427.924,2881.04Zm-2.64-7.17a0.581,0.581,0,0,0-.811,0l-0.864.86a0.584,0.584,0,0,0-.04.76,0.569,0.569,0,0,0,.85.05l0.865-.86A0.572,0.572,0,0,0,425.284,2873.87Z" transform="translate(-398 -2867)"/>
</svg>
