<svg xmlns="http://www.w3.org/2000/svg" width="37.938" height="41" viewBox="0 0 37.938 41">
  <path fill="none" stroke="#424242" d="M852.375,2874.17l-5.395-1.03a3.937,3.937,0,0,1-3.2-3.87v-2.23a1.043,1.043,0,0,0-1.041-1.04h-8.478a1.044,1.044,0,0,0-1.042,1.04v2.23a3.937,3.937,0,0,1-3.2,3.87l-5.395,1.03a5.7,5.7,0,0,0-4.609,6.03l1.888,24.84a1.042,1.042,0,0,0,1.038.96h4.493l0.9-5.82-3.509-15.37a1.213,1.213,0,0,1,2.366-.54l3.612,15.82-0.908,5.91h17.217l-0.909-5.91,3.612-15.82a1.213,1.213,0,0,1,2.366.54l-3.508,15.37,0.9,5.82h4.492a1.042,1.042,0,0,0,1.039-.96l1.888-24.84A5.7,5.7,0,0,0,852.375,2874.17Zm-12.9,22.12a0.971,0.971,0,0,1-1.942,0v-18.07a0.971,0.971,0,0,1,1.942,0v18.07Z" transform="translate(-819.531 -2865.5)"/>
</svg>
