<svg xmlns="http://www.w3.org/2000/svg" width="35.97" height="39" viewBox="0 0 35.97 39">
  <path d="M1273.18,2871.82a16.461,16.461,0,0,0-28.1,11.49l-2.99,5.99a0.557,0.557,0,0,0,.22.74l2.77,1.67v8.83a0.578,0.578,0,0,0,.57.58h5.54v4.31a0.575,0.575,0,0,0,1.15,0v-4.89a0.578,0.578,0,0,0-.58-0.57h-5.53v-8.59a0.588,0.588,0,0,0-.28-0.49l-2.6-1.55,2.82-5.64a0.542,0.542,0,0,0,.06-0.25,15.31,15.31,0,1,1,24.73,12.06,0.594,0.594,0,0,0-.22.45v9.47a0.575,0.575,0,0,0,1.15,0v-9.19A16.441,16.441,0,0,0,1273.18,2871.82Zm1.15,11.63a4.2,4.2,0,0,0-1.58-3.3,0.01,0.01,0,0,0-.01-0.01c-0.05-.04-0.1-0.08-0.16-0.12v-0.01a4.185,4.185,0,0,0,.53-2.06,59.718,59.718,0,0,1-10.35-6.68,4.269,4.269,0,0,0-3.52,1.88,5.39,5.39,0,0,0-2.59-.66,7.764,7.764,0,0,0-3.05,15.19,5.393,5.393,0,0,0,3-.9l2.55,0.27a0.573,0.573,0,0,0,.12-1.14l-1.51-.16a6.056,6.056,0,0,0,.62-0.88,0.575,0.575,0,1,0-1.01-.55,4.37,4.37,0,0,1-1.24,1.4h-0.01a4.241,4.241,0,0,1-2.52.82,4.312,4.312,0,0,1-2.37-7.92,5.581,5.581,0,0,0,.69,2.06,0.583,0.583,0,0,0,.84.17,0.562,0.562,0,0,0,.15-0.74,4.384,4.384,0,0,1-.57-2.16v-0.22a4.324,4.324,0,0,1,6.78-3.32,0.578,0.578,0,0,0,.85-0.22,3.094,3.094,0,0,1,5.85.83,4.22,4.22,0,0,0-.48,5.28,0.589,0.589,0,0,0,.85.12,0.583,0.583,0,0,0,.1-0.76,3.143,3.143,0,0,1-.51-1.71,3.1,3.1,0,0,1,6.19,0,3.051,3.051,0,0,1-.41,1.53,4.036,4.036,0,0,0-1.47-.27,0.575,0.575,0,0,0,0,1.15,3.09,3.09,0,1,1,.01,6.18,3.223,3.223,0,0,1-.93-0.14,3.1,3.1,0,0,1-2.17-2.95,0.57,0.57,0,1,0-1.14,0,4.241,4.241,0,0,0,2.47,3.85l1.11,4.44-0.96.64-2.76-5.52a0.575,0.575,0,0,0-.45-0.32l-3.3-.35a0.574,0.574,0,0,0-.63.51,0.56,0.56,0,0,0,.51.63l2.98,0.32,2.92,5.82a0.573,0.573,0,0,0,.83.22l1.83-1.22a0.566,0.566,0,0,0,.24-0.61l-1.05-4.21a4.028,4.028,0,0,0,.49.03A4.24,4.24,0,0,0,1274.33,2883.45Zm-10.66-2.78-1.48-1.48,1.45-1.44a0.58,0.58,0,0,0,0-.81l-1.73-1.73a0.58,0.58,0,0,0-.81,0l-1.45,1.45-1.48-1.48a0.58,0.58,0,0,0-.81,0l-1.73,1.73a0.58,0.58,0,0,0,0,.81l1.48,1.47-1.51,1.51a0.562,0.562,0,0,0,0,.81l1.73,1.73a0.58,0.58,0,0,0,.81,0l1.51-1.51,1.48,1.48a0.58,0.58,0,0,0,.81,0l1.73-1.73A0.58,0.58,0,0,0,1263.67,2880.67Zm-2.17-4.25,0.92,0.92-1.04,1.05-0.92-.92Zm-3.77,5.61-0.92-.92,1.11-1.11,0.92,0.92Zm3.8-.03-4.69-4.69,0.92-.92,4.69,4.69Z" transform="translate(-1242.03 -2867)"/>
</svg>
