<svg xmlns="http://www.w3.org/2000/svg" width="15" height="15" viewBox="0 0 15 15">
  <path id="Forma_1_копия_26" data-name="Forma 1 копия 26" class="cls-1" d="M1518.67,49.862l-2.32-2.323a1.2,1.2,0,0,0-1.7.032l-1.17,1.17c-0.08-.041-0.15-0.084-0.23-0.128a10.986,10.986,0,0,1-4.85-4.854c-0.04-.078-0.08-0.154-0.12-0.225l0.78-.784,0.39-.386a1.211,1.211,0,0,0,.03-1.707l-2.32-2.323a1.2,1.2,0,0,0-1.7.033l-0.66.658,0.02,0.018a3.869,3.869,0,0,0-.54.951,4.458,4.458,0,0,0-.24.965c-0.3,2.541.86,4.865,4,8.017,4.35,4.357,7.86,4.028,8.01,4.012a3.846,3.846,0,0,0,.96-0.243,3.72,3.72,0,0,0,.95-0.537l0.01,0.012,0.67-.649A1.221,1.221,0,0,0,1518.67,49.862Z" transform="translate(-1504 -38)"/>
</svg>
